<svg width="453" height="318" viewBox="0 0 453 318" fill="none" xmlns="http://www.w3.org/2000/svg">
<path d="M373.15 169.66C348.89 189.01 319.88 201.58 291.49 213.53C257.14 228 221.3 238.76 184.9 246.64C179.45 247.82 173.86 249.04 168.19 250.19C140.49 255.77 110.86 259.31 85.74 244.93C84.98 244.49 84.21 244.03 83.46 243.57C61.08 229.64 45.93 204.68 48.3 177.94C50.92 148.42 81.27 135.46 104.07 123.04C118.65 115.08 130.7 102.59 136.05 86.7C142.22 68.4 142.13 49.3 153.47 32.85C162.21 20.15 175.94 11.49 190.43 6.78004C219.9 -2.76996 254.04 1.51004 282.34 13.05C288.43 15.53 294.35 18.32 300.16 21.36C319.25 31.33 336.94 43.93 354.26 56.7C372.95 70.48 394.85 80.86 402.23 105.03C410.08 130.65 392.15 154.49 373.15 169.66Z" fill="url(#paint0_linear_6_670)"/>
<path d="M397.69 80.87C391 60.29 368.9 49.03 348.32 55.72C327.74 62.4 316.48 84.51 323.17 105.09C329.86 125.67 351.96 136.93 372.54 130.24C393.11 123.55 404.37 101.45 397.69 80.87ZM360.42 57.7C365.78 57.7 370.13 62.05 370.13 67.41C370.13 72.7701 365.78 77.12 360.42 77.12C355.06 77.12 350.71 72.7701 350.71 67.41C350.71 62.05 355.06 57.7 360.42 57.7ZM326.88 82.08C328.53 76.98 334.01 74.19 339.11 75.84C344.21 77.5 347 82.97 345.35 88.08C343.69 93.18 338.22 95.97 333.11 94.31C328.01 92.65 325.22 87.18 326.88 82.08ZM353.25 119.36C350.1 123.7 344.03 124.66 339.69 121.51C335.35 118.36 334.39 112.29 337.54 107.95C340.69 103.61 346.76 102.65 351.1 105.8C355.44 108.95 356.41 115.02 353.25 119.36ZM381.16 121.51C376.82 124.66 370.75 123.7 367.6 119.36C364.45 115.02 365.41 108.95 369.75 105.8C374.09 102.65 380.16 103.61 383.31 107.95C386.46 112.29 385.49 118.36 381.16 121.51ZM387.73 94.31C382.63 95.97 377.15 93.18 375.5 88.08C373.84 82.98 376.63 77.5 381.74 75.84C386.84 74.18 392.32 76.97 393.97 82.08C395.63 87.18 392.84 92.65 387.73 94.31Z" fill="#B9DEF9"/>
<path d="M360.42 105.7C367.445 105.7 373.14 100.005 373.14 92.98C373.14 85.9549 367.445 80.26 360.42 80.26C353.395 80.26 347.7 85.9549 347.7 92.98C347.7 100.005 353.395 105.7 360.42 105.7Z" fill="#B9DEF9"/>
<path d="M360.42 102.69C365.783 102.69 370.13 98.3427 370.13 92.98C370.13 87.6173 365.783 83.27 360.42 83.27C355.057 83.27 350.71 87.6173 350.71 92.98C350.71 98.3427 355.057 102.69 360.42 102.69Z" fill="white"/>
<path d="M360.42 129.9C380.81 129.9 397.34 113.37 397.34 92.9801C397.34 72.5897 380.81 56.0601 360.42 56.0601C340.03 56.0601 323.5 72.5897 323.5 92.9801C323.5 113.37 340.03 129.9 360.42 129.9Z" stroke="white" stroke-width="0.2679" stroke-miterlimit="10"/>
<path d="M34.98 129.59C38.26 139.77 65.47 131.91 76.51 141.04C87.54 150.17 59.59 150.56 68.02 161.87C72.87 168.37 89.05 174.26 105.47 172.12C124.88 169.6 138.6 151.68 136.76 132.19C134.87 112.15 125.66 75.8701 110.76 75.5101C98 75.2001 108.68 103.98 90.74 104.73C77.7 105.28 89.37 78.7501 77.21 76.7301C63.77 74.5001 69.28 98.3201 57.41 94.0301C45.54 89.7401 37.63 69.5301 29.45 77.3201C21.27 85.1101 33.59 97.0301 42 104.41C50.41 111.79 53.45 113.47 50.97 115.88C48.51 118.29 31.7 119.41 34.98 129.59Z" fill="#B9DEF9"/>
<path d="M79.82 158.1L112.83 148.49L83.24 125.29L83.25 125.33L55.14 126.71L80.73 123.32L46.18 96.23L67.18 111.1L71.76 94.26L69.15 112.5L101.19 135.19L112.51 99.89L103.06 136.52L124.09 151.42L121.31 155.15L114.99 150.19L79.82 158.1Z" fill="white"/>
<path d="M69.36 63.39C66.33 57.48 65.98 53.45 65.95 52.68C62.25 48.99 52.86 38.81 58.41 35.82C64.01 32.8 66.49 46.92 67.2 52.06C67.31 52.18 67.38 52.34 67.39 52.52C67.39 52.58 67.54 56.66 70.74 62.88C70.26 57.56 69.64 44.01 75.75 45.26C82.52 46.64 73.52 61.19 71.5 64.31C72.76 66.55 74.41 69.02 76.57 71.66C77.28 72.52 78.06 73.42 78.91 74.34C78.51 69.4 77.88 54.95 84.16 56.33C90.82 57.8 81.92 71.84 79.7 75.18C82.67 78.3 86.48 81.71 91.36 85.26C90.97 80.83 90.06 65.38 96.55 66.79C103.29 68.26 94.14 82.62 92.05 85.75C95.44 88.18 99.34 90.66 103.81 93.16C102.98 88.84 100.49 73.47 107.11 74.23C113.97 75.02 106.29 90.25 104.53 93.56C108.06 95.5 111.94 97.45 116.2 99.38C115.24 95.49 111.71 79.61 118.49 80.05C125.49 80.5 118.24 96.6 116.8 99.65C120.67 101.38 124.83 103.09 129.35 104.77C128.37 100.81 124.89 85.04 131.65 85.48C138.6 85.93 131.5 101.8 129.99 105C132.93 106.08 136 107.15 139.22 108.19C139.56 108.3 139.76 108.64 139.71 108.98C139.7 109.02 139.7 109.06 139.68 109.1C139.56 109.48 139.15 109.69 138.77 109.56C135.54 108.51 132.47 107.44 129.53 106.36C127.45 108.73 115.62 121.75 112.02 115.68C108.57 109.86 124.63 106.76 128.75 106.07C124.16 104.36 119.93 102.62 116 100.85C113.03 104.16 102.34 115.37 98.96 109.65C95.76 104.25 109.37 101.19 114.63 100.23C110.78 98.46 107.24 96.68 104 94.89C100.63 96.73 85.93 104.3 84.64 97.57C83.47 91.47 96.97 93.11 102.38 93.99C98.17 91.61 94.48 89.23 91.23 86.91C87.5 88.26 72.02 93.47 71.75 86.66C71.51 80.58 84.11 83.94 89.52 85.66C85.06 82.33 81.51 79.13 78.7 76.18C74.5 76.62 58.66 77.87 60 71.27C61.16 65.56 71.69 71.06 76.83 74.14C76.31 73.55 75.82 72.97 75.36 72.41C73.25 69.82 71.63 67.4 70.36 65.18C66.65 64.74 50.11 62.4 52.98 56.14C55.52 50.57 65.38 59.46 69.36 63.39Z" fill="url(#paint1_linear_6_670)"/>
<path d="M226.1 317.48C350.972 317.48 452.2 312.882 452.2 307.21C452.2 301.538 350.972 296.94 226.1 296.94C101.228 296.94 0 301.538 0 307.21C0 312.882 101.228 317.48 226.1 317.48Z" fill="url(#paint2_linear_6_670)"/>
<path d="M411.83 308.03H28.72C25.83 308.03 23.48 305.68 23.48 302.79V298.3H417.07V302.79C417.07 305.69 414.72 308.03 411.83 308.03Z" fill="url(#paint3_linear_6_670)"/>
<path d="M417.07 298.3H23.5L80.36 261.65H363.57L417.07 298.3Z" fill="white"/>
<path d="M233.29 271.49L234.01 273.59C234.06 273.73 234.28 273.83 234.54 273.83H253.88C254.22 273.83 254.48 273.66 254.41 273.48L253.69 271.38C253.64 271.24 253.42 271.14 253.16 271.14H233.82C233.48 271.14 233.23 271.31 233.29 271.49ZM234.02 276.01L234.81 278.19C234.85 278.31 235.04 278.39 235.27 278.39H255.87C256.16 278.39 256.38 278.24 256.33 278.09L255.54 275.91C255.5 275.79 255.31 275.71 255.08 275.71H234.48C234.18 275.71 233.96 275.85 234.02 276.01ZM185.28 273.83H204.62C204.88 273.83 205.11 273.73 205.15 273.59L205.87 271.49C205.93 271.31 205.68 271.14 205.34 271.14H186C185.74 271.14 185.51 271.24 185.47 271.38L184.75 273.48C184.68 273.66 184.94 273.83 185.28 273.83ZM233.83 269.72H252.16C252.5 269.72 252.75 269.55 252.69 269.37L252.01 267.27C251.96 267.13 251.74 267.03 251.48 267.03H233.15C232.81 267.03 232.56 267.2 232.62 267.38L233.3 269.48C233.34 269.62 233.56 269.72 233.83 269.72ZM210.41 269.72H228.75C229.05 269.72 229.29 269.59 229.29 269.43V267.33C229.29 267.17 229.05 267.04 228.75 267.04H210.41C210.11 267.04 209.87 267.17 209.87 267.33V269.43C209.87 269.59 210.11 269.72 210.41 269.72ZM257.11 271.56L258.91 273.66C259 273.76 259.19 273.83 259.4 273.83H278.65C279.05 273.83 279.31 273.61 279.14 273.41L277.34 271.31C277.25 271.21 277.06 271.14 276.85 271.14H257.6C257.21 271.14 256.94 271.37 257.11 271.56ZM187.01 269.72H205.34C205.6 269.72 205.83 269.62 205.87 269.48L206.55 267.38C206.61 267.2 206.35 267.03 206.02 267.03H187.69C187.43 267.03 187.2 267.13 187.16 267.27L186.48 269.37C186.42 269.56 186.67 269.72 187.01 269.72ZM209.27 278.39H229.89C230.15 278.39 230.36 278.28 230.36 278.14V275.96C230.36 275.82 230.15 275.71 229.89 275.71H209.27C209.01 275.71 208.8 275.82 208.8 275.96V278.14C208.8 278.28 209.01 278.39 209.27 278.39ZM209.9 273.83H229.26C229.56 273.83 229.8 273.7 229.8 273.54V271.44C229.8 271.28 229.56 271.15 229.26 271.15H209.9C209.6 271.15 209.36 271.28 209.36 271.44V273.54C209.36 273.7 209.6 273.83 209.9 273.83ZM256.95 269.55C257.04 269.66 257.23 269.73 257.45 269.73H275.69C276.08 269.73 276.34 269.51 276.19 269.32L274.48 267.22C274.39 267.11 274.2 267.04 273.98 267.04H255.74C255.35 267.04 255.09 267.26 255.24 267.45L256.95 269.55ZM329.27 271.64L332.87 273.74C332.97 273.8 333.12 273.83 333.27 273.83H352.23C352.7 273.83 352.95 273.52 352.63 273.34L349.03 271.24C348.93 271.18 348.78 271.15 348.63 271.15H329.67C329.19 271.14 328.94 271.45 329.27 271.64ZM308.99 273.83H327.95C328.42 273.83 328.67 273.52 328.35 273.34L324.75 271.24C324.65 271.18 324.5 271.15 324.35 271.15H305.39C304.92 271.15 304.67 271.46 304.99 271.64L308.59 273.74C308.7 273.8 308.84 273.83 308.99 273.83ZM335.1 276.14L339.05 278.32C339.14 278.37 339.26 278.4 339.38 278.4H359.63C360.04 278.4 360.25 278.13 359.96 277.97L356.01 275.79C355.92 275.74 355.8 275.71 355.68 275.71H335.43C335.02 275.71 334.81 275.98 335.1 276.14ZM304.96 275.71H284.59C284.2 275.71 283.98 275.95 284.22 276.12L287.38 278.3C287.47 278.36 287.6 278.4 287.75 278.4H308.12C308.51 278.4 308.73 278.16 308.49 277.99L305.33 275.81C305.23 275.74 305.1 275.71 304.96 275.71ZM280.65 269.6C280.75 269.68 280.92 269.72 281.09 269.72H299.19C299.63 269.72 299.89 269.45 299.63 269.26L296.89 267.16C296.79 267.08 296.62 267.04 296.45 267.04H278.35C277.91 267.04 277.65 267.31 277.91 267.5L280.65 269.6ZM304.16 269.62C304.26 269.68 304.41 269.72 304.57 269.72H322.55C323.02 269.72 323.27 269.42 322.96 269.23L319.54 267.13C319.44 267.07 319.29 267.03 319.13 267.03H301.15C300.68 267.03 300.43 267.33 300.74 267.52L304.16 269.62ZM313.46 278.32C313.55 278.37 313.67 278.4 313.79 278.4H334.04C334.45 278.4 334.66 278.13 334.37 277.97L330.42 275.79C330.33 275.74 330.21 275.71 330.09 275.71H309.84C309.43 275.71 309.22 275.98 309.51 276.14L313.46 278.32ZM280.98 271.61L283.86 273.71C283.96 273.78 284.12 273.83 284.29 273.83H303.38C303.83 273.83 304.08 273.55 303.81 273.36L300.93 271.26C300.83 271.19 300.67 271.14 300.5 271.14H281.41C280.97 271.14 280.71 271.42 280.98 271.61ZM327.22 269.62C327.32 269.68 327.47 269.72 327.63 269.72H345.61C346.08 269.72 346.33 269.42 346.02 269.23L342.6 267.13C342.5 267.07 342.35 267.03 342.19 267.03H324.21C323.74 267.03 323.49 267.33 323.8 267.52L327.22 269.62ZM280.03 275.71H259.51C259.16 275.71 258.94 275.91 259.09 276.07L261.06 278.25C261.14 278.34 261.3 278.39 261.48 278.39H282C282.35 278.39 282.57 278.19 282.42 278.03L280.45 275.85C280.37 275.76 280.21 275.71 280.03 275.71ZM93.55 269.72H111.53C111.69 269.72 111.83 269.68 111.94 269.62L115.36 267.52C115.67 267.33 115.42 267.03 114.95 267.03H96.98C96.82 267.03 96.68 267.07 96.57 267.13L93.15 269.23C92.84 269.42 93.09 269.72 93.55 269.72ZM106.1 280.23H76.59C76.3 280.23 76.03 280.3 75.86 280.43L72.68 282.74C72.23 283.07 72.66 283.53 73.41 283.53H102.92C103.21 283.53 103.48 283.46 103.65 283.33L106.83 281.02C107.29 280.7 106.86 280.23 106.1 280.23ZM79.54 278.39H99.79C99.92 278.39 100.03 278.36 100.12 278.31L104.07 276.13C104.36 275.97 104.15 275.7 103.74 275.7H83.48C83.35 275.7 83.24 275.73 83.15 275.78L79.2 277.96C78.91 278.12 79.12 278.39 79.54 278.39ZM86.93 273.83H105.89C106.04 273.83 106.18 273.8 106.29 273.74L109.89 271.64C110.21 271.45 109.97 271.15 109.49 271.15H90.54C90.39 271.15 90.25 271.18 90.14 271.24L86.54 273.34C86.21 273.52 86.46 273.83 86.93 273.83ZM143.1 280.23H113.38C113.04 280.23 112.73 280.33 112.57 280.49L110.3 282.8C109.98 283.13 110.42 283.53 111.11 283.53H140.83C141.17 283.53 141.48 283.43 141.64 283.27L143.91 280.96C144.23 280.63 143.79 280.23 143.1 280.23ZM182.84 278.09C182.78 278.25 183 278.39 183.3 278.39H203.9C204.12 278.39 204.31 278.3 204.36 278.19L205.15 276.01C205.21 275.85 204.99 275.71 204.69 275.71H184.09C183.87 275.71 183.68 275.8 183.63 275.91L182.84 278.09ZM248.88 287.13C248.36 286.31 246.94 285.76 245.34 285.76H194.05C192.45 285.76 191.03 286.31 190.51 287.13L187.39 292.08C186.56 293.4 188.36 294.77 190.93 294.77H248.46C251.03 294.77 252.83 293.4 252 292.08L248.88 287.13ZM326.35 280.49C326.19 280.33 325.88 280.23 325.54 280.23H295.82C295.13 280.23 294.69 280.63 295.01 280.96L297.28 283.27C297.44 283.43 297.75 283.53 298.09 283.53H327.81C328.5 283.53 328.94 283.13 328.62 282.8L326.35 280.49ZM290.99 282.73L287.7 280.42C287.53 280.3 287.26 280.23 286.98 280.23H155.21C154.97 280.23 154.74 280.28 154.57 280.37L150.22 282.68C149.63 282.99 150.04 283.53 150.86 283.53H290.27C291.03 283.53 291.46 283.05 290.99 282.73ZM367.98 282.73L364.8 280.42C364.63 280.29 364.36 280.22 364.07 280.22H334.56C333.81 280.22 333.38 280.69 333.83 281.01L337.01 283.32C337.18 283.45 337.45 283.52 337.74 283.52H367.25C368 283.53 368.44 283.06 367.98 282.73ZM139.97 269.72H158.07C158.25 269.72 158.41 269.67 158.51 269.6L161.25 267.5C161.5 267.31 161.25 267.04 160.81 267.04H142.71C142.53 267.04 142.37 267.09 142.27 267.16L139.53 269.26C139.27 269.45 139.53 269.72 139.97 269.72ZM159.13 275.71C158.95 275.71 158.79 275.76 158.71 275.85L156.74 278.03C156.59 278.2 156.81 278.39 157.16 278.39H177.68C177.86 278.39 178.02 278.34 178.1 278.25L180.07 276.07C180.22 275.9 180 275.71 179.65 275.71H159.13ZM160.51 273.83H179.76C179.97 273.83 180.16 273.76 180.25 273.66L182.05 271.56C182.22 271.36 181.95 271.14 181.56 271.14H162.31C162.1 271.14 161.91 271.21 161.82 271.31L160.02 273.41C159.85 273.61 160.11 273.83 160.51 273.83ZM163.47 269.72H181.71C181.92 269.72 182.12 269.65 182.21 269.54L183.92 267.44C184.08 267.25 183.82 267.03 183.42 267.03H165.18C164.97 267.03 164.77 267.1 164.68 267.21L162.97 269.31C162.82 269.5 163.08 269.72 163.47 269.72ZM116.62 269.72H134.6C134.76 269.72 134.9 269.68 135.01 269.62L138.43 267.52C138.74 267.33 138.49 267.03 138.02 267.03H120.04C119.88 267.03 119.74 267.07 119.63 267.13L116.21 269.23C115.9 269.42 116.15 269.72 116.62 269.72ZM109.07 275.71C108.94 275.71 108.83 275.74 108.74 275.79L104.79 277.97C104.5 278.13 104.71 278.4 105.12 278.4H125.37C125.5 278.4 125.61 278.37 125.7 278.32L129.65 276.14C129.94 275.98 129.73 275.71 129.32 275.71H109.07ZM135.34 273.36C135.07 273.55 135.33 273.83 135.77 273.83H154.86C155.03 273.83 155.19 273.79 155.29 273.71L158.17 271.61C158.44 271.42 158.18 271.14 157.74 271.14H138.65C138.48 271.14 138.32 271.18 138.22 271.26L135.34 273.36ZM131.05 278.39H151.42C151.56 278.39 151.7 278.35 151.79 278.29L154.95 276.11C155.19 275.94 154.97 275.7 154.58 275.7H134.21C134.07 275.7 133.93 275.74 133.84 275.8L130.68 277.98C130.44 278.15 130.66 278.39 131.05 278.39ZM130.57 273.74L134.17 271.64C134.49 271.45 134.25 271.15 133.77 271.15H114.81C114.66 271.15 114.52 271.18 114.41 271.24L110.81 273.34C110.49 273.53 110.73 273.83 111.21 273.83H130.17C130.32 273.83 130.46 273.8 130.57 273.74Z" fill="url(#paint4_linear_6_670)"/>
<path d="M364.44 94.93V262.41C364.44 264.6 362.44 266.38 359.99 266.38H83.13C80.68 266.38 78.68 264.6 78.68 262.41V94.93C78.68 92.74 80.68 90.96 83.13 90.96H359.99C362.45 90.96 364.44 92.74 364.44 94.93Z" fill="url(#paint5_linear_6_670)"/>
<path d="M357.85 254.38L85.28 254.39C85.28 254.39 85.27 254.39 85.27 254.38V97.14H357.85V254.38Z" fill="url(#paint6_linear_6_670)"/>
<path d="M330.03 46.72H250.42C249.59 46.72 248.92 46.05 248.92 45.22V32.08C248.92 31.25 249.59 30.58 250.42 30.58H330.03C330.86 30.58 331.53 31.25 331.53 32.08V45.22C331.52 46.05 330.85 46.72 330.03 46.72Z" fill="url(#paint7_linear_6_670)"/>
<path d="M325.45 37.89H267.45V39.42H325.45V37.89Z" fill="white"/>
<path d="M261.15 38.3599L255.43 35.0599C255.21 34.9299 254.93 35.0899 254.93 35.3499V41.9599C254.93 42.2099 255.21 42.3699 255.43 42.2499L261.15 38.9499C261.38 38.8099 261.38 38.4899 261.15 38.3599Z" fill="white"/>
<path d="M320.98 229.04H119.57C116.62 229.04 114.23 226.65 114.23 223.7V61.75C114.23 58.8 116.62 56.41 119.57 56.41H320.98C323.93 56.41 326.32 58.8 326.32 61.75V223.71C326.32 226.65 323.93 229.04 320.98 229.04Z" fill="white"/>
<path d="M223.45 178.15C241.543 178.15 256.21 163.483 256.21 145.39C256.21 127.297 241.543 112.63 223.45 112.63C205.357 112.63 190.69 127.297 190.69 145.39C190.69 163.483 205.357 178.15 223.45 178.15Z" fill="url(#paint8_linear_6_670)"/>
<path d="M192.54 202.97C200.487 202.97 206.93 196.527 206.93 188.58C206.93 180.633 200.487 174.19 192.54 174.19C184.593 174.19 178.15 180.633 178.15 188.58C178.15 196.527 184.593 202.97 192.54 202.97Z" fill="url(#paint9_linear_6_670)"/>
<path d="M326.32 75.24H114.24V61.75C114.24 58.8 116.63 56.41 119.58 56.41H320.99C323.94 56.41 326.33 58.8 326.33 61.75V75.24H326.32Z" fill="url(#paint10_linear_6_670)"/>
<path d="M302.73 91.78H139.39V212.48H302.73V91.78Z" stroke="#1745A1" stroke-width="0.7198" stroke-miterlimit="10"/>
<path d="M302.73 94.61C304.094 94.61 305.2 93.5042 305.2 92.14C305.2 90.7759 304.094 89.67 302.73 89.67C301.366 89.67 300.26 90.7759 300.26 92.14C300.26 93.5042 301.366 94.61 302.73 94.61Z" fill="url(#paint11_linear_6_670)"/>
<path d="M139.6 94.61C140.964 94.61 142.07 93.5042 142.07 92.14C142.07 90.7759 140.964 89.67 139.6 89.67C138.236 89.67 137.13 90.7759 137.13 92.14C137.13 93.5042 138.236 94.61 139.6 94.61Z" fill="url(#paint12_linear_6_670)"/>
<path d="M302.73 215.16C304.094 215.16 305.2 214.054 305.2 212.69C305.2 211.326 304.094 210.22 302.73 210.22C301.366 210.22 300.26 211.326 300.26 212.69C300.26 214.054 301.366 215.16 302.73 215.16Z" fill="url(#paint13_linear_6_670)"/>
<path d="M139.6 215.16C140.964 215.16 142.07 214.054 142.07 212.69C142.07 211.326 140.964 210.22 139.6 210.22C138.236 210.22 137.13 211.326 137.13 212.69C137.13 214.054 138.236 215.16 139.6 215.16Z" fill="url(#paint14_linear_6_670)"/>
<path d="M210.68 158.75L209.19 165.18L213.98 181.36L194.11 181.53L193.84 184.14L215.97 187.87C218.99 188.38 221.73 186.02 221.67 182.96L221.34 164.87L221.41 169.66L231.46 204.77L234.07 204.56L232.4 159.51" fill="#20449B"/>
<path d="M217.95 163.01L215.01 169.47L218.21 183.91L201.34 183.78" stroke="#F9FBFC" stroke-width="0.2005" stroke-miterlimit="10"/>
<path d="M217.91 163.83C218.236 163.83 218.5 163.566 218.5 163.24C218.5 162.914 218.236 162.65 217.91 162.65C217.584 162.65 217.32 162.914 217.32 163.24C217.32 163.566 217.584 163.83 217.91 163.83Z" fill="#F9FBFC"/>
<path d="M215.12 169.91C215.446 169.91 215.71 169.646 215.71 169.32C215.71 168.994 215.446 168.73 215.12 168.73C214.794 168.73 214.53 168.994 214.53 169.32C214.53 169.646 214.794 169.91 215.12 169.91Z" fill="#F9FBFC"/>
<path d="M218.12 184.45C218.446 184.45 218.71 184.186 218.71 183.86C218.71 183.534 218.446 183.27 218.12 183.27C217.794 183.27 217.53 183.534 217.53 183.86C217.53 184.186 217.794 184.45 218.12 184.45Z" fill="#F9FBFC"/>
<path d="M201.34 184.37C201.666 184.37 201.93 184.106 201.93 183.78C201.93 183.454 201.666 183.19 201.34 183.19C201.014 183.19 200.75 183.454 200.75 183.78C200.75 184.106 201.014 184.37 201.34 184.37Z" fill="#F9FBFC"/>
<path d="M246.87 156.74L247.84 157.44C247.84 157.44 248.72 156.61 249.25 156.84C249.78 157.07 248.44 157.53 248.87 157.67C249.3 157.81 251.09 157.86 251.02 158.43C250.95 159 250.34 159.98 249.45 160.08C248.55 160.18 247.68 159.65 247.39 159.36C247.1 159.07 245.93 158.81 245.93 158.81" fill="#D8A7B5"/>
<path d="M216.7 164.5L217.07 165.63C217.07 165.63 218.27 165.48 218.56 165.97C218.85 166.46 217.5 166.06 217.76 166.42C218.02 166.78 219.44 167.88 219.05 168.3C218.66 168.72 217.59 169.16 216.81 168.71C216.03 168.26 215.63 167.32 215.57 166.92C215.5 166.51 214.72 165.62 214.72 165.62" fill="#D8A7B5"/>
<path d="M238.11 149.13L234.91 140.64C234.31 139.04 232.91 137.88 231.23 137.58L230.49 137.45L217.09 137.11L214.49 137.66C211.79 138.24 209.73 140.42 209.3 143.15L208.13 150.62C207.88 152.24 208.17 153.9 208.96 155.34L210.68 158.45L210.69 158.76L210.86 158.78L214.78 165.88L216.98 164.99L215.22 159.23L216.81 159.39L232.41 159.53V149.56L233.95 151.88C234.76 153.1 235.89 154.09 237.22 154.72L246.41 159.11L247.49 157.15L238.11 149.13Z" fill="url(#paint15_linear_6_670)"/>
<path d="M217.08 137.1L221.89 140.41C222.65 140.94 223.56 141.22 224.49 141.22C225.61 141.22 226.69 140.81 227.53 140.07L230.49 137.44V134.21L217.09 131.46V137.1H217.08Z" fill="#CE9DAD"/>
<path d="M211.27 113.55L212.61 127.89L221.48 136.79C222.47 137.78 223.81 138.34 225.22 138.34C226.63 138.34 227.99 137.77 228.98 136.77C232.19 133.51 233.99 129.11 233.99 124.53V114.01L211.27 113.55Z" fill="#D8A7B5"/>
<path d="M209.45 122.01C209.45 122.01 205.94 112.34 209.48 107.75C212.61 103.69 214.89 104.92 214.89 104.92C214.89 104.92 217.33 101.67 221.13 101.73C223.01 101.76 224.57 102.41 225.99 103.14C225.99 103.14 231.84 101.86 233.97 102.89C233.97 102.89 232.89 103.8 233.03 105.79C233.03 105.79 237.81 104.62 238.91 106.07C238.91 106.07 237.17 107.26 237.75 113.58C237.75 113.58 237.77 117.36 233.71 127.67L233.69 116.57C233.69 115.24 232.61 114.16 231.28 114.15L218.71 114.04C216.98 114.03 215.51 115.29 215.26 117L214.35 126.57L213.21 126.51L212.52 122.64C212.54 122.63 210.2 120.95 209.45 122.01Z" fill="url(#paint16_linear_6_670)"/>
<path d="M221.61 125.52C222.179 125.52 222.64 124.62 222.64 123.51C222.64 122.4 222.179 121.5 221.61 121.5C221.041 121.5 220.58 122.4 220.58 123.51C220.58 124.62 221.041 125.52 221.61 125.52Z" fill="url(#paint17_linear_6_670)"/>
<path d="M230.27 125.52C230.839 125.52 231.3 124.62 231.3 123.51C231.3 122.4 230.839 121.5 230.27 121.5C229.701 121.5 229.24 122.4 229.24 123.51C229.24 124.62 229.701 125.52 230.27 125.52Z" fill="url(#paint18_linear_6_670)"/>
<path d="M232.88 119.63L227.55 118.17L227.73 117.44L233.17 118.61L232.88 119.63Z" fill="url(#paint19_linear_6_670)"/>
<path d="M218.28 119.74L223.45 117.97L223.33 117.24L218 118.71L218.28 119.74Z" fill="url(#paint20_linear_6_670)"/>
<path d="M227.41 127.65H224.58V128.58H227.41V127.65Z" fill="#CE9DAD"/>
<path d="M221.5 130.62L223.22 131.52H228.01L229.51 130.58L230.01 130.71L227.42 134.3H224.24L221.04 131.28L221.5 130.62Z" fill="#AC286B"/>
<path d="M221.5 130.62L223.72 132.71H227.12L229.51 130.58L228.01 131.52H223.22L221.5 130.62Z" fill="#FEFCFD"/>
<path d="M212.56 122.61C212.56 122.61 210.21 121.09 209.57 121.71C209.08 122.18 209.61 124.75 210.38 125.65C211.15 126.55 212.73 128 212.73 128" fill="#D8A7B5"/>
<path d="M216.97 164.97C216.97 164.97 216.86 164.65 216.67 164.08C216.49 163.51 216.22 162.69 215.91 161.73C215.6 160.75 215.24 159.61 214.85 158.4C214.47 157.17 214.07 155.87 213.67 154.57C213.39 153.64 213.11 152.72 212.85 151.85L212.84 151.83V151.81C212.91 151.4 212.97 151.03 213.04 150.66C213.26 149.4 213.47 148.22 213.64 147.21C213.82 146.21 213.97 145.36 214.08 144.78C214.19 144.19 214.25 143.86 214.25 143.86C214.25 143.86 214.2 144.2 214.12 144.79C214.03 145.38 213.91 146.23 213.76 147.24C213.61 148.25 213.42 149.44 213.23 150.7C213.17 151.07 213.11 151.44 213.05 151.85V151.8C213.32 152.67 213.6 153.59 213.89 154.52C214.28 155.83 214.68 157.13 215.05 158.36C215.41 159.58 215.75 160.73 216.04 161.72C216.32 162.7 216.56 163.53 216.72 164.1C216.88 164.64 216.97 164.97 216.97 164.97Z" fill="#654ED8"/>
<path d="M231.46 204.76L231.58 206.58C231.58 206.58 235.42 206.61 237.57 206.47C238.1 206.44 238.55 205.85 238.72 205.58C239.47 204.4 238.35 203.17 237.22 203.35C236.09 203.52 236.25 204.9 235.17 205.02C234.31 205.11 234.08 204.56 234.08 204.56" fill="#060B2F"/>
<path d="M194.12 181.53L192.31 181.32C192.31 181.32 191.58 185.1 191.33 187.23C191.27 187.76 191.77 188.31 192 188.52C193.02 189.47 194.43 188.6 194.47 187.45C194.51 186.3 193.12 186.21 193.21 185.13C193.28 184.26 193.86 184.14 193.86 184.14" fill="#060B2F"/>
<path d="M223.96 163.42L228.97 175.93L232.24 200.34" stroke="#F9FBFC" stroke-width="0.2005" stroke-miterlimit="10"/>
<path d="M223.91 163.98C224.236 163.98 224.5 163.716 224.5 163.39C224.5 163.064 224.236 162.8 223.91 162.8C223.584 162.8 223.32 163.064 223.32 163.39C223.32 163.716 223.584 163.98 223.91 163.98Z" fill="#F9FBFC"/>
<path d="M229 176.66C229.326 176.66 229.59 176.396 229.59 176.07C229.59 175.744 229.326 175.48 229 175.48C228.674 175.48 228.41 175.744 228.41 176.07C228.41 176.396 228.674 176.66 229 176.66Z" fill="#F9FBFC"/>
<path d="M232.25 201.09C232.576 201.09 232.84 200.826 232.84 200.5C232.84 200.174 232.576 199.91 232.25 199.91C231.924 199.91 231.66 200.174 231.66 200.5C231.66 200.826 231.924 201.09 232.25 201.09Z" fill="#F9FBFC"/>
<path d="M224.61 117.61L226.6 126.23L226.86 133.3L224.75 141.01" stroke="#F9FBFC" stroke-width="0.2005" stroke-miterlimit="10"/>
<path d="M229.05 142.04L233.07 142.83L235.73 150.45L244.67 156.71" stroke="#F9FBFC" stroke-width="0.2005" stroke-miterlimit="10"/>
<path d="M215.71 140.38L212.07 142.17L210.2 152.36L215.17 164.13" stroke="#F9FBFC" stroke-width="0.2005" stroke-miterlimit="10"/>
<path d="M222.55 143.95V157.66" stroke="#F9FBFC" stroke-width="0.2005" stroke-miterlimit="10"/>
<path d="M224.61 118.5C224.936 118.5 225.2 118.236 225.2 117.91C225.2 117.584 224.936 117.32 224.61 117.32C224.284 117.32 224.02 117.584 224.02 117.91C224.02 118.236 224.284 118.5 224.61 118.5Z" fill="#F9FBFC"/>
<path d="M226.6 126.82C226.926 126.82 227.19 126.556 227.19 126.23C227.19 125.904 226.926 125.64 226.6 125.64C226.274 125.64 226.01 125.904 226.01 126.23C226.01 126.556 226.274 126.82 226.6 126.82Z" fill="#F9FBFC"/>
<path d="M226.86 133.89C227.186 133.89 227.45 133.626 227.45 133.3C227.45 132.974 227.186 132.71 226.86 132.71C226.534 132.71 226.27 132.974 226.27 133.3C226.27 133.626 226.534 133.89 226.86 133.89Z" fill="#F9FBFC"/>
<path d="M224.83 141.43C225.156 141.43 225.42 141.166 225.42 140.84C225.42 140.514 225.156 140.25 224.83 140.25C224.504 140.25 224.24 140.514 224.24 140.84C224.24 141.166 224.504 141.43 224.83 141.43Z" fill="#F9FBFC"/>
<path d="M212.07 142.76C212.396 142.76 212.66 142.496 212.66 142.17C212.66 141.844 212.396 141.58 212.07 141.58C211.744 141.58 211.48 141.844 211.48 142.17C211.48 142.496 211.744 142.76 212.07 142.76Z" fill="#F9FBFC"/>
<path d="M210.27 153C210.596 153 210.86 152.736 210.86 152.41C210.86 152.084 210.596 151.82 210.27 151.82C209.944 151.82 209.68 152.084 209.68 152.41C209.68 152.736 209.944 153 210.27 153Z" fill="#F9FBFC"/>
<path d="M215.24 164.81C215.566 164.81 215.83 164.546 215.83 164.22C215.83 163.894 215.566 163.63 215.24 163.63C214.914 163.63 214.65 163.894 214.65 164.22C214.65 164.546 214.914 164.81 215.24 164.81Z" fill="#F9FBFC"/>
<path d="M216.02 140.85C216.346 140.85 216.61 140.586 216.61 140.26C216.61 139.934 216.346 139.67 216.02 139.67C215.694 139.67 215.43 139.934 215.43 140.26C215.43 140.586 215.694 140.85 216.02 140.85Z" fill="#F9FBFC"/>
<path d="M222.55 158.21C222.876 158.21 223.14 157.946 223.14 157.62C223.14 157.294 222.876 157.03 222.55 157.03C222.224 157.03 221.96 157.294 221.96 157.62C221.96 157.946 222.224 158.21 222.55 158.21Z" fill="#F9FBFC"/>
<path d="M222.55 144.18C222.876 144.18 223.14 143.916 223.14 143.59C223.14 143.264 222.876 143 222.55 143C222.224 143 221.96 143.264 221.96 143.59C221.96 143.916 222.224 144.18 222.55 144.18Z" fill="#F9FBFC"/>
<path d="M228.59 142.57C228.916 142.57 229.18 142.306 229.18 141.98C229.18 141.654 228.916 141.39 228.59 141.39C228.264 141.39 228 141.654 228 141.98C228 142.306 228.264 142.57 228.59 142.57Z" fill="#F9FBFC"/>
<path d="M232.91 143.38C233.236 143.38 233.5 143.116 233.5 142.79C233.5 142.464 233.236 142.2 232.91 142.2C232.584 142.2 232.32 142.464 232.32 142.79C232.32 143.116 232.584 143.38 232.91 143.38Z" fill="#F9FBFC"/>
<path d="M235.77 151.06C236.096 151.06 236.36 150.796 236.36 150.47C236.36 150.144 236.096 149.88 235.77 149.88C235.444 149.88 235.18 150.144 235.18 150.47C235.18 150.796 235.444 151.06 235.77 151.06Z" fill="#F9FBFC"/>
<path d="M244.78 157.38C245.106 157.38 245.37 157.116 245.37 156.79C245.37 156.464 245.106 156.2 244.78 156.2C244.454 156.2 244.19 156.464 244.19 156.79C244.19 157.116 244.454 157.38 244.78 157.38Z" fill="#F9FBFC"/>
<path d="M275.49 68.5601C277.003 68.5601 278.23 67.3333 278.23 65.8201C278.23 64.3068 277.003 63.0801 275.49 63.0801C273.977 63.0801 272.75 64.3068 272.75 65.8201C272.75 67.3333 273.977 68.5601 275.49 68.5601Z" fill="white"/>
<path d="M291.65 68.5601C293.163 68.5601 294.39 67.3333 294.39 65.8201C294.39 64.3068 293.163 63.0801 291.65 63.0801C290.137 63.0801 288.91 64.3068 288.91 65.8201C288.91 67.3333 290.137 68.5601 291.65 68.5601Z" fill="white"/>
<path d="M307.81 68.5601C309.323 68.5601 310.55 67.3333 310.55 65.8201C310.55 64.3068 309.323 63.0801 307.81 63.0801C306.297 63.0801 305.07 64.3068 305.07 65.8201C305.07 67.3333 306.297 68.5601 307.81 68.5601Z" fill="white"/>
<path d="M403.92 196.96H292.74C291.17 196.96 289.9 195.69 289.9 194.12V122.22C289.9 120.65 291.17 119.38 292.74 119.38H403.92C405.49 119.38 406.76 120.65 406.76 122.22V194.12C406.75 195.69 405.48 196.96 403.92 196.96Z" fill="url(#paint21_linear_6_670)"/>
<path d="M406.75 131H289.9V122.23C289.9 120.66 291.17 119.39 292.74 119.39H403.92C405.49 119.39 406.76 120.66 406.76 122.23V131H406.75Z" fill="url(#paint22_linear_6_670)"/>
<path d="M381.82 126.87C382.748 126.87 383.5 126.118 383.5 125.19C383.5 124.262 382.748 123.51 381.82 123.51C380.892 123.51 380.14 124.262 380.14 125.19C380.14 126.118 380.892 126.87 381.82 126.87Z" fill="white"/>
<path d="M389.85 126.87C390.778 126.87 391.53 126.118 391.53 125.19C391.53 124.262 390.778 123.51 389.85 123.51C388.922 123.51 388.17 124.262 388.17 125.19C388.17 126.118 388.922 126.87 389.85 126.87Z" fill="white"/>
<path d="M397.88 126.87C398.808 126.87 399.56 126.118 399.56 125.19C399.56 124.262 398.808 123.51 397.88 123.51C396.952 123.51 396.2 124.262 396.2 125.19C396.2 126.118 396.952 126.87 397.88 126.87Z" fill="white"/>
<path d="M393.77 143.41H300.78V145.36H393.77V143.41Z" fill="url(#paint23_linear_6_670)"/>
<path d="M393.77 156.82H300.78V158.77H393.77V156.82Z" fill="url(#paint24_linear_6_670)"/>
<path d="M393.77 170.24H300.78V172.19H393.77V170.24Z" fill="url(#paint25_linear_6_670)"/>
<path d="M393.77 183.65H300.78V185.6H393.77V183.65Z" fill="url(#paint26_linear_6_670)"/>
<path d="M341.18 143.41H300.78V145.36H341.18V143.41Z" fill="url(#paint27_linear_6_670)"/>
<path d="M377.41 156.82H300.78V158.77H377.41V156.82Z" fill="url(#paint28_linear_6_670)"/>
<path d="M356.4 170.24H300.78V172.19H356.4V170.24Z" fill="url(#paint29_linear_6_670)"/>
<path d="M368.78 183.65H300.78V185.6H368.78V183.65Z" fill="url(#paint30_linear_6_670)"/>
<path d="M344.38 146.98H340.26C339.96 146.98 339.72 146.74 339.72 146.44V142.32C339.72 142.02 339.96 141.78 340.26 141.78H344.38C344.68 141.78 344.92 142.02 344.92 142.32V146.44C344.92 146.74 344.68 146.98 344.38 146.98Z" fill="url(#paint31_linear_6_670)"/>
<path d="M380.01 160.39H375.89C375.59 160.39 375.35 160.15 375.35 159.85V155.73C375.35 155.43 375.59 155.19 375.89 155.19H380.01C380.31 155.19 380.55 155.43 380.55 155.73V159.85C380.54 160.15 380.3 160.39 380.01 160.39Z" fill="url(#paint32_linear_6_670)"/>
<path d="M358.42 173.81H354.3C354 173.81 353.76 173.57 353.76 173.27V169.15C353.76 168.85 354 168.61 354.3 168.61H358.42C358.72 168.61 358.96 168.85 358.96 169.15V173.27C358.96 173.57 358.72 173.81 358.42 173.81Z" fill="url(#paint33_linear_6_670)"/>
<path d="M372.79 187.22H368.67C368.37 187.22 368.13 186.98 368.13 186.68V182.56C368.13 182.26 368.37 182.02 368.67 182.02H372.79C373.09 182.02 373.33 182.26 373.33 182.56V186.68C373.32 186.99 373.08 187.22 372.79 187.22Z" fill="url(#paint34_linear_6_670)"/>
<path d="M44.75 190.88C41.15 194.01 49.82 217.15 52.7 215.45C58.13 215.07 51.54 187.02 44.75 190.88Z" fill="#D8A7B5"/>
<path d="M53.97 203.86L55.62 212.81L60.51 214.46L60.21 219.01C60.21 219.01 52.34 219.01 50.35 216.34C48.36 213.67 46.67 205.72 46.67 205.72L53.97 203.86Z" fill="#D8A7B5"/>
<path d="M39.67 187.79C52.12 187.21 52.48 197.14 54.4 203.9L46.37 206.22L39.67 187.79Z" fill="url(#paint35_linear_6_670)"/>
<path d="M50.82 215.71C50.86 216.42 51.32 217.04 51.94 217.37C56.83 219.94 68.57 219.17 68.31 217.45C68.15 216.31 50.54 210.4 50.82 215.71Z" fill="#D8A7B5"/>
<path d="M66.2899 216.52L66.0699 216.34L66.6399 216.02L67.6499 215.51C67.9099 215.38 68.1999 215.31 68.4899 215.32L69.7299 215.66C69.7299 215.66 69.9299 216 69.1999 215.99C69.0099 215.99 68.7499 216.15 68.5399 216.29L69.2599 216.39L70.9899 216.77C71.4299 216.86 71.9099 217.34 71.8099 217.87C71.8099 217.87 71.6199 218.6 70.7799 218.76L69.6299 219.08C68.9999 219.14 68.5299 219.31 67.9299 219.12L66.3399 218.47L66.2899 216.52Z" fill="#D8A7B5"/>
<path d="M43.3699 221.82C36.3199 222.09 39.8599 228.63 41.2399 234.39C43.7399 243.44 42.4599 255.2 46.1299 256.46C55.8999 259.34 52.4599 224.72 49.7399 223.16C48.4499 222.45 45.7399 222.05 43.3699 221.82Z" fill="#D8A7B5"/>
<path d="M50.03 253.41C43.15 248.56 43.98 289.01 45.89 298.2C47.8 307.4 49.68 293.44 50.9 278.72C52.12 263.99 52.74 255.32 50.03 253.41Z" fill="#D8A7B5"/>
<path d="M44.75 296.62L44.88 300.67L49.96 300.74V297.1L44.75 296.62Z" fill="#D8A7B5"/>
<path d="M50.41 300.79C50.41 300.79 51.48 302.86 55.02 305.55C58.56 308.25 59.49 307.66 59.57 308.67C59.65 309.67 44.47 308.8 44.47 308.8L44.78 300.54C44.78 300.54 50.41 300.57 50.41 300.79Z" fill="url(#paint36_linear_6_670)"/>
<path d="M35.8399 222C28.9199 220.62 28.9999 228.08 28.9999 234C29.3299 243.38 27.1899 254.25 30.4599 256.32C39.2999 261.39 41.8099 225.81 39.5199 223.66C38.4499 222.67 38.0899 222.76 35.8399 222Z" fill="#D8A7B5"/>
<path d="M34.13 253.41C27.2499 248.56 28.0799 289.01 29.9899 298.2C31.8999 307.4 33.7799 293.44 34.9999 278.72C36.2099 263.99 36.84 255.32 34.13 253.41Z" fill="#D8A7B5"/>
<path d="M29.1299 298.32L29.1199 301.69L34.5199 301.73L34.5099 298.76L29.1299 298.32Z" fill="#D8A7B5"/>
<path d="M29.07 301.64C29 302.97 27.61 307.52 27.58 308.68C36.17 308.9 35.92 310.62 34.54 301.67L29.07 301.64Z" fill="url(#paint37_linear_6_670)"/>
<path d="M51.98 224.59C51.98 224.59 54.43 253.04 54.3 257.27C54.18 261.49 50.12 297.53 50.12 297.53L44.61 297.29C44.61 297.29 42.37 276.98 44.11 257.48L40.88 239.39L34.71 298.77H28.87C28.87 298.77 28.66 262.41 28.29 256.7C27.92 250.99 29.25 223.78 29.25 223.78L51.98 224.59Z" fill="url(#paint38_linear_6_670)"/>
<path d="M51.98 224.59C52.06 225.98 40.77 225.94 34.08 225.14C31.26 224.8 29.26 224.33 29.26 223.76C29.95 213.44 28.79 205.82 28 200.26C26.76 191.53 26.41 187.86 35.53 186.7L42.48 187.4C56.69 189.96 49.5 203.68 51.98 224.59Z" fill="url(#paint39_linear_6_670)"/>
<path d="M67.4379 216.458L45.6379 216.243L45.6275 217.303L67.4275 217.518L67.4379 216.458Z" fill="#1B3689"/>
<path d="M73.11 217.57L52.83 217.37L58.69 203.6L78.97 203.8L73.11 217.57Z" fill="#1B3689"/>
<path d="M73.69 217.57L53.41 217.37L59.26 203.6L79.54 203.8L73.69 217.57Z" fill="url(#paint40_linear_6_670)"/>
<path d="M68.0899 211.29C67.7099 212.2 66.9199 212.74 66.3199 212.49C65.7199 212.24 65.5299 211.3 65.9099 210.39C66.2899 209.48 67.0799 208.94 67.6799 209.19C68.2799 209.44 68.4699 210.38 68.0899 211.29Z" fill="url(#paint41_linear_6_670)"/>
<path d="M34.08 225.14C31.26 224.8 29.26 224.33 29.26 223.76C29.95 213.44 28.79 205.82 28 200.26L31.57 199.88C31.57 199.88 30.18 208 30.43 214.48C30.65 220.6 30.93 224.05 34.08 225.14Z" fill="url(#paint42_linear_6_670)"/>
<path d="M42.5099 185.47V185.54L42.4999 186.61L42.4599 189.41C42.4599 189.42 42.4599 189.43 42.4499 189.44C42.1199 193.03 36.4599 189.13 35.8199 187.64C35.3799 186.68 36.0299 186.2 36.0499 184.17C36.0699 182.16 36.0699 181.93 36.0699 181.93C29.2899 171.14 40.6099 166.75 44.9399 174.41C44.9399 176.92 45.1999 179.35 45.2499 181.32C45.3399 184.25 44.9399 186.1 42.5099 185.47Z" fill="#D8A7B5"/>
<path d="M46.49 172.17C46.54 173.3 46.12 174.39 45.06 175.01C44.05 175.6 42.88 175.5 41.84 175.07C40.77 174.63 39.64 174.01 38.5 174.58C36.91 175.37 38.14 177.88 38.14 179.14V179.17C37.86 179.3 37.51 179.45 37.24 179.55C37.1 178.63 36.8 177.77 36.2 177.79C35.34 177.83 36.24 181.89 36.08 181.93C35.99 181.95 35 180.51 34.35 178.69C34.22 178.33 34.1 177.95 34.01 177.56C33.41 175.05 33.6 171.11 36.63 170.28C37.9 169.93 39.18 169.63 40.38 169.07C41.56 168.52 42.75 167.88 44.07 168.41C45.45 168.98 46.42 170.61 46.49 172.17Z" fill="url(#paint43_linear_6_670)"/>
<path d="M29.36 190.13C25.56 192.81 31.54 217.27 34.5 215.9C39.79 216.07 36.31 187.06 29.36 190.13Z" fill="#D8A7B5"/>
<path d="M37.03 205.51L37.92 210.78L46.36 208.94L47.66 213.06C47.66 213.06 36.02 218.71 33.57 216.33C31.12 213.95 29.51 206.43 29.51 206.43L37.03 205.51Z" fill="#D8A7B5"/>
<path d="M34.94 192.52L37.48 205.64L29.06 207.07C29.06 207.07 26.77 195.08 27.05 192.08C27.11 191.5 27.4 190.87 27.81 190.24C27.83 190.21 27.84 190.19 27.86 190.16C29.83 187.28 34.15 189.11 34.94 192.52Z" fill="url(#paint44_linear_6_670)"/>
<path d="M33.47 215.76C33.79 216.37 34.44 216.74 35.13 216.78C40.49 217.09 59.07 208.16 57.9 207.13C57.43 206.12 31.1 211.18 33.47 215.76Z" fill="#D8A7B5"/>
<path d="M54.69 207.34L54.42 207.27L54.79 206.75L55.48 205.89C55.66 205.67 55.88 205.5 56.14 205.39L57.37 205.19C57.37 205.19 57.68 205.41 57.03 205.7C56.86 205.78 56.69 206.02 56.57 206.23L57.24 206.03L58.77 205.63C59.2 205.53 59.69 207.51 59 207.99L58.65 208.27C58.12 208.58 57.77 208.91 57.16 208.99L55.49 209.06L54.69 207.34Z" fill="#D8A7B5"/>
<path d="M42.51 185.47L42.5 186.61C41.66 185.78 40.19 184.34 40.19 184.34C41.17 185.08 42.51 185.47 42.51 185.47Z" fill="#D7CFBB"/>
<path d="M42.51 185.47V185.54C41.55 185.17 40.66 184.76 40.2 184.34C38.86 183.15 37.24 179.54 37.24 179.54L38.14 179.16C38.14 179.16 39.09 181.77 40.87 181.74C42.57 181.7 44.27 180.74 45.26 181.3C45.34 184.25 44.94 186.1 42.51 185.47Z" fill="url(#paint45_linear_6_670)"/>
<path d="M42.65 183.05C42.66 183.02 43.43 182.47 44.32 182.53C44.58 182.55 44.98 182.91 45.1 183.17C45.09 183.17 43.58 184.12 42.65 183.05Z" fill="#D8A7B5"/>
<path d="M401.66 191.48L401.51 187.88C401.51 187.88 406.89 177.26 402.54 174.97C398.19 172.68 393.66 174.31 393.66 178.28C393.66 182.25 394.39 187.03 396.22 187.26L395.86 190.49" fill="#D8A7B5"/>
<path d="M398.11 185.81C398.55 187.16 399.02 187.75 400.42 187.72C401.28 187.7 401.59 187.74 401.59 187.74C402.43 187.16 403.58 185.32 404.2 183.24C405.32 179.53 405.8 173.78 401.08 173.08C396.36 172.38 392.66 171.5 391.83 172.49C391.01 173.47 392.49 178.06 394.15 178.78C395.81 179.49 397.46 178.85 397.42 180.43C397.38 182.03 397.5 183.93 398.11 185.81Z" fill="url(#paint46_linear_6_670)"/>
<path d="M389.76 230.24C389.85 230.55 390.23 230.58 390.85 230.38C390.86 230.38 390.86 230.38 390.86 230.38C391.43 230.2 392.21 229.83 393.1 229.33C394.22 228.71 395.55 227.87 396.98 226.9C403.57 222.45 412.27 215.37 412.22 214.48C412.14 213.19 412.52 212.14 409.72 211.99C409.23 211.96 408.74 212.11 408.36 212.43C406.38 214.01 399.49 219.56 394.68 224.12C393.68 225.07 392.76 225.98 392 226.79C390.5 228.38 389.6 229.65 389.76 230.24Z" fill="#D8A7B5"/>
<path d="M402.11 216.99L391.23 226.85L393.28 229.56L405.64 220.94L402.11 216.99Z" fill="#D8A7B5"/>
<path d="M384.95 231.1C384.97 231.13 384.99 231.16 385.01 231.19L386.17 231.96C386.32 232.15 387.03 232.31 387.28 232.27L388.35 232.2C389.34 232.06 390.31 231.73 391.17 231.22L392.97 229.75L393.36 229.44L393.04 228.86L392.06 227.09L391.85 226.69L391.84 226.68L391.63 226.62L390.1 226.26C389.64 226.15 389.18 226.16 388.74 226.27L386.95 227.25C386.95 227.25 387.26 227.59 387.93 227.54C388.23 227.51 388.65 227.64 389.02 227.79L387.96 228.21L385.42 229.44C384.79 229.76 384.58 230.54 384.95 231.1Z" fill="#D8A7B5"/>
<path d="M405.51 192.2C406.69 192.31 406.81 190.87 407.24 191.96C409.15 196.88 415.26 213.46 411.71 215.02C407.54 216.86 402.99 201.85 402.23 197.36C401.6 193.61 402.66 191.93 405.51 192.2Z" fill="#D8A7B5"/>
<path d="M401.9 198.97C402.24 200.12 402.77 201.87 403.32 203.72C403.33 203.74 403.33 203.77 403.33 203.79C403.6 204.69 403.89 205.65 404.19 206.57L411.87 203.87C411.86 203.83 411.85 203.79 411.84 203.75C410.24 197.99 409.21 194.47 408.21 192.31C407.55 190.85 405.86 190.2 404.42 190.84C403.19 191.39 401.91 192.57 401.54 195.03C401.35 196.35 401.5 197.7 401.9 198.97Z" fill="url(#paint47_linear_6_670)"/>
<path d="M406.38 220.84L402.67 216.08C402.59 215.98 402.44 215.96 402.34 216.04L401.72 216.51C401.62 216.59 401.6 216.74 401.68 216.84L405.35 221.64C405.43 221.74 405.58 221.76 405.68 221.68L406.34 221.17C406.44 221.09 406.46 220.94 406.38 220.84Z" fill="white"/>
<path d="M391.1 231.39C393.83 231.67 395.78 234.37 395.37 237.23C395.04 239.51 394.28 242.49 392.67 246.1C388.64 255.1 386.31 266.64 382.46 267.22C378.61 267.8 377.26 261.01 379.52 251.62C381.57 243.13 381.83 232.48 384.57 231.5C385.95 231.02 388.71 231.15 391.1 231.39Z" fill="#D8A7B5"/>
<path d="M379.75 264.76C387.17 260.25 384.01 295.28 381.4 304.6C378.79 313.92 377.3 305.96 377.08 290.73C376.86 275.5 376.83 266.53 379.75 264.76Z" fill="#D8A7B5"/>
<path d="M400.96 231.09C403.68 230.7 406.23 232.84 406.52 235.72C406.75 238.01 406.74 241.09 406.05 244.98C404.33 254.69 404.87 266.45 401.28 267.95C397.69 269.45 394.72 263.19 394.64 253.53C394.56 244.8 392.22 234.4 394.65 232.79C395.87 231.98 398.58 231.43 400.96 231.09Z" fill="#D8A7B5"/>
<path d="M398.14 265.18C405.24 260.19 404.41 295.35 402.43 304.82C400.45 314.29 398.43 306.44 397.2 291.26C395.98 276.08 395.35 267.14 398.14 265.18Z" fill="#D8A7B5"/>
<path d="M383.02 301.28L382.57 305.99H377.07L377.16 300.87L383.02 301.28Z" fill="#D8A7B5"/>
<path d="M403.27 301.28L403.05 305.99H397.56L397.64 300.87L403.27 301.28Z" fill="#D8A7B5"/>
<path d="M376.72 302.04H383.55L385.98 268.09L393.56 245.17C393.56 245.17 394.78 265.85 395.05 268.93C395.19 270.42 395.73 278.17 396.27 285.83C396.84 294.09 397.39 302.23 397.39 302.23H403.56L404.96 266.97L405.15 264.9L409.31 233.51L384.29 230.59L382.35 230.43C382.35 230.43 376.72 256.77 376.34 265.56C375.98 274.36 376.72 302.04 376.72 302.04Z" fill="url(#paint48_linear_6_670)"/>
<path d="M376.72 302.04H383.55C376.53 300.98 376.35 265.56 376.35 265.56C375.98 274.36 376.72 302.04 376.72 302.04Z" fill="#EFF4F6"/>
<path d="M382.65 230.27C382.65 230.27 390.77 235.02 399.82 235.21C402.85 235.28 405.99 234.83 408.96 233.51C408.96 233.51 408.71 219.05 409.09 211.31C409.46 203.58 410.3 193.12 407.14 191.06C405.81 190.19 403.24 189.99 401.62 189.95C401.23 189.94 400.63 190.28 399.37 190.27C397.36 190.25 396.04 189.81 396.04 189.81C392.86 189.84 385.99 190.62 385.8 197.64V197.72C385.54 206.62 385.51 222.69 382.65 230.27Z" fill="url(#paint49_linear_6_670)"/>
<path opacity="0.5" d="M382.61 230.29C382.64 230.27 382.64 230.27 382.64 230.27C382.66 230.22 382.68 230.17 382.7 230.11C382.67 230.17 382.65 230.23 382.61 230.29Z" fill="#C3D3DD"/>
<path d="M363.59 179.65C363.31 179.73 363.21 180.09 363.26 180.67C363.26 180.68 363.26 180.68 363.26 180.68C363.3 181.22 363.47 181.95 363.74 182.79C364.06 183.84 364.53 185.1 365.09 186.45C367.67 192.67 372.1 200.9 372.87 200.86C374 200.8 374.82 201.17 375.48 198.55C375.6 198.09 375.56 197.63 375.36 197.27C374.38 195.4 370.91 188.89 367.91 184.33C367.29 183.38 366.68 182.51 366.13 181.79C365.04 180.37 364.12 179.5 363.59 179.65Z" fill="#D8A7B5"/>
<path d="M363.1 177.28C361.81 177.94 361.97 179.01 361.97 179.01C361.91 179.77 362.44 180.73 362.65 181.41C362.68 181.5 362.72 181.59 362.76 181.68L363.5 183.05L363.67 183.37L364.16 183.12L365.65 182.33L365.99 182.16L366 182.15L366.08 181.97L366.61 180.72C366.77 180.35 366.84 179.97 366.83 179.6L366.39 178.12C366.39 178.12 366.08 178.37 366.01 178.92C365.98 179.17 365.81 179.51 365.64 179.81L365.5 178.93L365.24 178.05C365.11 177.54 364.34 176.65 363.1 177.28Z" fill="#D8A7B5"/>
<path d="M373.02 192.15L366.18 181.55L363.51 183.08L368.92 195.75L373.02 192.15Z" fill="#D8A7B5"/>
<path d="M393.28 194.82C392.96 195.92 394.18 196.06 393.16 196.44C388.58 198.17 373.18 203.7 372.5 200.36C371.71 196.43 385.46 192.35 389.47 191.69C392.81 191.14 394.05 192.16 393.28 194.82Z" fill="#D8A7B5"/>
<path d="M381.1 193.8L375.54 195.54L373.03 192.15L368.92 195.75C368.92 195.75 371.82 200.93 373.17 201.48C374.52 202.03 382.11 200.4 382.11 200.4L381.1 193.8Z" fill="#D8A7B5"/>
<path d="M380.83 193.52C380.83 193.52 381.94 200.74 381.95 200.74C384.23 200.36 385.6 200.07 387.88 199.47C390.58 198.76 394.59 197.95 395.6 194.43C396.33 191.87 394.2 190.14 392.05 190.32C390.04 190.49 388.05 191.41 386.05 191.99C384.69 192.38 383.33 192.77 381.97 193.17C381.9 193.19 380.83 193.49 380.83 193.52Z" fill="url(#paint50_linear_6_670)"/>
<path d="M382.67 312.19V304.99C382.67 304.99 380.5 305.84 377.08 304.76C377.08 304.76 374.55 307.41 372.14 307.64C369.73 307.88 368.45 309.82 368.43 311.23C368.41 312.55 382.67 312.19 382.67 312.19Z" fill="url(#paint51_linear_6_670)"/>
<path d="M403.09 305.29C403.09 305.29 398.95 305.62 397.57 305C397.57 305 396.92 307.13 396.59 307.9C396.26 308.67 396.03 309.2 394.61 309.58C393.01 310.01 392.7 312.06 394.18 312.2C395.66 312.34 403.1 312.2 403.1 312.2L403.09 305.29Z" fill="url(#paint52_linear_6_670)"/>
<path d="M213.14 46.42H152.37C151.27 46.42 150.39 45.53 150.39 44.44V1.98C150.39 0.88 151.28 0 152.37 0H213.14C214.24 0 215.12 0.89 215.12 1.98V44.44C215.12 45.53 214.24 46.42 213.14 46.42Z" fill="#B9DEF9"/>
<path d="M196.15 22.28L174.38 9.70996C173.66 9.29996 172.76 9.80996 172.76 10.64V35.78C172.76 36.61 173.66 37.13 174.38 36.71L196.15 24.14C196.87 23.73 196.87 22.69 196.15 22.28Z" fill="white"/>
<defs>
<linearGradient id="paint0_linear_6_670" x1="226.1" y1="41.3904" x2="226.1" y2="228.445" gradientUnits="userSpaceOnUse">
<stop stop-color="#E2F4FF"/>
<stop offset="1" stop-color="#D7ECFF"/>
</linearGradient>
<linearGradient id="paint1_linear_6_670" x1="52.636" y1="76.345" x2="139.717" y2="76.345" gradientUnits="userSpaceOnUse">
<stop stop-color="#9972FF"/>
<stop offset="1" stop-color="#7F85FF"/>
</linearGradient>
<linearGradient id="paint2_linear_6_670" x1="0" y1="307.214" x2="452.2" y2="307.214" gradientUnits="userSpaceOnUse">
<stop stop-color="#E2F4FF"/>
<stop offset="1" stop-color="#D7ECFF"/>
</linearGradient>
<linearGradient id="paint3_linear_6_670" x1="23.4835" y1="303.167" x2="417.071" y2="303.167" gradientUnits="userSpaceOnUse">
<stop stop-color="#43D4C3"/>
<stop offset="1" stop-color="#5A98FE"/>
</linearGradient>
<linearGradient id="paint4_linear_6_670" x1="72.4922" y1="280.902" x2="368.168" y2="280.902" gradientUnits="userSpaceOnUse">
<stop stop-color="#E2F4FF"/>
<stop offset="1" stop-color="#D7ECFF"/>
</linearGradient>
<linearGradient id="paint5_linear_6_670" x1="78.6782" y1="178.669" x2="364.443" y2="178.669" gradientUnits="userSpaceOnUse">
<stop offset="0.0879" stop-color="#374492"/>
<stop offset="1" stop-color="#014DAE"/>
</linearGradient>
<linearGradient id="paint6_linear_6_670" x1="221.562" y1="97.8825" x2="221.562" y2="249.644" gradientUnits="userSpaceOnUse">
<stop stop-color="#43D4C3"/>
<stop offset="1" stop-color="#5A98FE"/>
</linearGradient>
<linearGradient id="paint7_linear_6_670" x1="290.221" y1="31.4582" x2="290.221" y2="45.2756" gradientUnits="userSpaceOnUse">
<stop stop-color="#9972FF"/>
<stop offset="1" stop-color="#7F85FF"/>
</linearGradient>
<linearGradient id="paint8_linear_6_670" x1="223.452" y1="116.181" x2="223.452" y2="172.305" gradientUnits="userSpaceOnUse">
<stop stop-color="#E2F4FF"/>
<stop offset="1" stop-color="#D7ECFF"/>
</linearGradient>
<linearGradient id="paint9_linear_6_670" x1="192.543" y1="175.752" x2="192.543" y2="200.4" gradientUnits="userSpaceOnUse">
<stop stop-color="#E2F4FF"/>
<stop offset="1" stop-color="#D7ECFF"/>
</linearGradient>
<linearGradient id="paint10_linear_6_670" x1="114.236" y1="65.823" x2="326.318" y2="65.823" gradientUnits="userSpaceOnUse">
<stop offset="0.0879" stop-color="#374492"/>
<stop offset="1" stop-color="#014DAE"/>
</linearGradient>
<linearGradient id="paint11_linear_6_670" x1="300.261" y1="92.1392" x2="305.204" y2="92.1392" gradientUnits="userSpaceOnUse">
<stop offset="0.0879" stop-color="#374492"/>
<stop offset="1" stop-color="#014DAE"/>
</linearGradient>
<linearGradient id="paint12_linear_6_670" x1="137.127" y1="92.1392" x2="142.07" y2="92.1392" gradientUnits="userSpaceOnUse">
<stop offset="0.0879" stop-color="#374492"/>
<stop offset="1" stop-color="#014DAE"/>
</linearGradient>
<linearGradient id="paint13_linear_6_670" x1="300.261" y1="212.691" x2="305.204" y2="212.691" gradientUnits="userSpaceOnUse">
<stop offset="0.0879" stop-color="#374492"/>
<stop offset="1" stop-color="#014DAE"/>
</linearGradient>
<linearGradient id="paint14_linear_6_670" x1="137.127" y1="212.691" x2="142.07" y2="212.691" gradientUnits="userSpaceOnUse">
<stop offset="0.0879" stop-color="#374492"/>
<stop offset="1" stop-color="#014DAE"/>
</linearGradient>
<linearGradient id="paint15_linear_6_670" x1="208.031" y1="151.48" x2="247.487" y2="151.48" gradientUnits="userSpaceOnUse">
<stop stop-color="#9972FF"/>
<stop offset="1" stop-color="#7F85FF"/>
</linearGradient>
<linearGradient id="paint16_linear_6_670" x1="207.897" y1="114.695" x2="238.916" y2="114.695" gradientUnits="userSpaceOnUse">
<stop stop-color="#294698"/>
<stop offset="1" stop-color="#0E4BA6"/>
</linearGradient>
<linearGradient id="paint17_linear_6_670" x1="220.581" y1="123.508" x2="222.642" y2="123.508" gradientUnits="userSpaceOnUse">
<stop stop-color="#294698"/>
<stop offset="1" stop-color="#0E4BA6"/>
</linearGradient>
<linearGradient id="paint18_linear_6_670" x1="229.24" y1="123.508" x2="231.302" y2="123.508" gradientUnits="userSpaceOnUse">
<stop stop-color="#294698"/>
<stop offset="1" stop-color="#0E4BA6"/>
</linearGradient>
<linearGradient id="paint19_linear_6_670" x1="227.548" y1="118.539" x2="233.165" y2="118.539" gradientUnits="userSpaceOnUse">
<stop stop-color="#294698"/>
<stop offset="1" stop-color="#0E4BA6"/>
</linearGradient>
<linearGradient id="paint20_linear_6_670" x1="217.995" y1="118.491" x2="223.451" y2="118.491" gradientUnits="userSpaceOnUse">
<stop stop-color="#294698"/>
<stop offset="1" stop-color="#0E4BA6"/>
</linearGradient>
<linearGradient id="paint21_linear_6_670" x1="348.328" y1="123.589" x2="348.328" y2="190.038" gradientUnits="userSpaceOnUse">
<stop stop-color="#E2F4FF"/>
<stop offset="1" stop-color="#D7ECFF"/>
</linearGradient>
<linearGradient id="paint22_linear_6_670" x1="289.903" y1="125.192" x2="406.754" y2="125.192" gradientUnits="userSpaceOnUse">
<stop offset="0.0879" stop-color="#374492"/>
<stop offset="1" stop-color="#014DAE"/>
</linearGradient>
<linearGradient id="paint23_linear_6_670" x1="300.777" y1="144.38" x2="393.77" y2="144.38" gradientUnits="userSpaceOnUse">
<stop stop-color="#9972FF"/>
<stop offset="1" stop-color="#7F85FF"/>
</linearGradient>
<linearGradient id="paint24_linear_6_670" x1="300.777" y1="157.796" x2="393.77" y2="157.796" gradientUnits="userSpaceOnUse">
<stop stop-color="#9972FF"/>
<stop offset="1" stop-color="#7F85FF"/>
</linearGradient>
<linearGradient id="paint25_linear_6_670" x1="300.777" y1="171.212" x2="393.77" y2="171.212" gradientUnits="userSpaceOnUse">
<stop stop-color="#9972FF"/>
<stop offset="1" stop-color="#7F85FF"/>
</linearGradient>
<linearGradient id="paint26_linear_6_670" x1="300.777" y1="184.628" x2="393.77" y2="184.628" gradientUnits="userSpaceOnUse">
<stop stop-color="#9972FF"/>
<stop offset="1" stop-color="#7F85FF"/>
</linearGradient>
<linearGradient id="paint27_linear_6_670" x1="300.777" y1="144.38" x2="341.173" y2="144.38" gradientUnits="userSpaceOnUse">
<stop stop-color="#9972FF"/>
<stop offset="1" stop-color="#7F85FF"/>
</linearGradient>
<linearGradient id="paint28_linear_6_670" x1="300.777" y1="157.796" x2="377.403" y2="157.796" gradientUnits="userSpaceOnUse">
<stop stop-color="#9972FF"/>
<stop offset="1" stop-color="#7F85FF"/>
</linearGradient>
<linearGradient id="paint29_linear_6_670" x1="300.777" y1="171.212" x2="356.399" y2="171.212" gradientUnits="userSpaceOnUse">
<stop stop-color="#9972FF"/>
<stop offset="1" stop-color="#7F85FF"/>
</linearGradient>
<linearGradient id="paint30_linear_6_670" x1="300.777" y1="184.628" x2="368.777" y2="184.628" gradientUnits="userSpaceOnUse">
<stop stop-color="#9972FF"/>
<stop offset="1" stop-color="#7F85FF"/>
</linearGradient>
<linearGradient id="paint31_linear_6_670" x1="339.727" y1="144.38" x2="344.92" y2="144.38" gradientUnits="userSpaceOnUse">
<stop stop-color="#294698"/>
<stop offset="1" stop-color="#0E4BA6"/>
</linearGradient>
<linearGradient id="paint32_linear_6_670" x1="375.35" y1="157.796" x2="380.543" y2="157.796" gradientUnits="userSpaceOnUse">
<stop stop-color="#294698"/>
<stop offset="1" stop-color="#0E4BA6"/>
</linearGradient>
<linearGradient id="paint33_linear_6_670" x1="353.765" y1="171.212" x2="358.958" y2="171.212" gradientUnits="userSpaceOnUse">
<stop stop-color="#294698"/>
<stop offset="1" stop-color="#0E4BA6"/>
</linearGradient>
<linearGradient id="paint34_linear_6_670" x1="368.128" y1="184.628" x2="373.321" y2="184.628" gradientUnits="userSpaceOnUse">
<stop stop-color="#294698"/>
<stop offset="1" stop-color="#0E4BA6"/>
</linearGradient>
<linearGradient id="paint35_linear_6_670" x1="37.149" y1="191.885" x2="55.0627" y2="202.743" gradientUnits="userSpaceOnUse">
<stop stop-color="#7541FF"/>
<stop offset="1" stop-color="#6C73FF"/>
</linearGradient>
<linearGradient id="paint36_linear_6_670" x1="44.4731" y1="304.849" x2="59.5728" y2="304.849" gradientUnits="userSpaceOnUse">
<stop stop-color="#294698"/>
<stop offset="1" stop-color="#0E4BA6"/>
</linearGradient>
<linearGradient id="paint37_linear_6_670" x1="27.5762" y1="305.301" x2="35.266" y2="305.301" gradientUnits="userSpaceOnUse">
<stop stop-color="#294698"/>
<stop offset="1" stop-color="#0E4BA6"/>
</linearGradient>
<linearGradient id="paint38_linear_6_670" x1="28.233" y1="261.262" x2="54.3054" y2="261.262" gradientUnits="userSpaceOnUse">
<stop offset="0.0879" stop-color="#374492"/>
<stop offset="1" stop-color="#014DAE"/>
</linearGradient>
<linearGradient id="paint39_linear_6_670" x1="51.9788" y1="206.202" x2="27.3477" y2="206.202" gradientUnits="userSpaceOnUse">
<stop stop-color="#9972FF"/>
<stop offset="1" stop-color="#7F85FF"/>
</linearGradient>
<linearGradient id="paint40_linear_6_670" x1="79.5442" y1="210.588" x2="53.4063" y2="210.588" gradientUnits="userSpaceOnUse">
<stop offset="0.0879" stop-color="#374492"/>
<stop offset="1" stop-color="#014DAE"/>
</linearGradient>
<linearGradient id="paint41_linear_6_670" x1="65.7155" y1="210.841" x2="68.2871" y2="210.841" gradientUnits="userSpaceOnUse">
<stop stop-color="#E2F4FF"/>
<stop offset="1" stop-color="#D7ECFF"/>
</linearGradient>
<linearGradient id="paint42_linear_6_670" x1="31.9833" y1="199.925" x2="30.1398" y2="224.849" gradientUnits="userSpaceOnUse">
<stop stop-color="#E2F4FF"/>
<stop offset="1" stop-color="#D7ECFF"/>
</linearGradient>
<linearGradient id="paint43_linear_6_670" x1="33.7319" y1="175.071" x2="46.4985" y2="175.071" gradientUnits="userSpaceOnUse">
<stop stop-color="#294698"/>
<stop offset="1" stop-color="#0E4BA6"/>
</linearGradient>
<linearGradient id="paint44_linear_6_670" x1="37.4765" y1="197.901" x2="27.0181" y2="197.901" gradientUnits="userSpaceOnUse">
<stop stop-color="#7541FF"/>
<stop offset="1" stop-color="#6C73FF"/>
</linearGradient>
<linearGradient id="paint45_linear_6_670" x1="37.2358" y1="182.382" x2="45.2623" y2="182.382" gradientUnits="userSpaceOnUse">
<stop stop-color="#294698"/>
<stop offset="1" stop-color="#0E4BA6"/>
</linearGradient>
<linearGradient id="paint46_linear_6_670" x1="405.101" y1="178.642" x2="392.701" y2="180.611" gradientUnits="userSpaceOnUse">
<stop offset="0.0879" stop-color="#374492"/>
<stop offset="1" stop-color="#014DAE"/>
</linearGradient>
<linearGradient id="paint47_linear_6_670" x1="401.457" y1="198.577" x2="411.872" y2="198.577" gradientUnits="userSpaceOnUse">
<stop stop-color="#7541FF"/>
<stop offset="1" stop-color="#6C73FF"/>
</linearGradient>
<linearGradient id="paint48_linear_6_670" x1="409.313" y1="266.329" x2="376.244" y2="266.329" gradientUnits="userSpaceOnUse">
<stop offset="0.0879" stop-color="#374492"/>
<stop offset="1" stop-color="#014DAE"/>
</linearGradient>
<linearGradient id="paint49_linear_6_670" x1="382.646" y1="212.521" x2="409.472" y2="212.521" gradientUnits="userSpaceOnUse">
<stop stop-color="#9972FF"/>
<stop offset="1" stop-color="#7F85FF"/>
</linearGradient>
<linearGradient id="paint50_linear_6_670" x1="380.829" y1="195.522" x2="395.741" y2="195.522" gradientUnits="userSpaceOnUse">
<stop stop-color="#7541FF"/>
<stop offset="1" stop-color="#6C73FF"/>
</linearGradient>
<linearGradient id="paint51_linear_6_670" x1="382.667" y1="308.492" x2="368.424" y2="308.492" gradientUnits="userSpaceOnUse">
<stop stop-color="#294698"/>
<stop offset="1" stop-color="#0E4BA6"/>
</linearGradient>
<linearGradient id="paint52_linear_6_670" x1="403.104" y1="308.637" x2="393.226" y2="308.637" gradientUnits="userSpaceOnUse">
<stop stop-color="#294698"/>
<stop offset="1" stop-color="#0E4BA6"/>
</linearGradient>
</defs>
</svg>
