<svg width="13" height="12" viewBox="0 0 13 12" fill="none" xmlns="http://www.w3.org/2000/svg">
<g clip-path="url(#clip0_14_329)">
<path d="M0.750509 2.23022C2.39746 3.62501 5.28735 6.07887 6.13673 6.84399C6.25075 6.94725 6.37305 6.99975 6.50001 6.99975C6.62671 6.99975 6.7488 6.94774 6.86256 6.84497C7.71266 6.0791 10.6026 3.62501 12.2495 2.23022C12.3521 2.14355 12.3677 1.9912 12.2847 1.88524C12.0928 1.64039 11.8067 1.5 11.5 1.5H1.50002C1.19338 1.5 0.907236 1.64039 0.715353 1.88527C0.632337 1.9912 0.64797 2.14355 0.750509 2.23022Z" fill="#86E3A2"/>
<path d="M12.355 2.98595C12.2664 2.9447 12.1621 2.95909 12.0884 3.02209C10.262 4.57042 7.93091 6.55506 7.1975 7.21593C6.78587 7.58751 6.21458 7.58751 5.80198 7.21544C5.02025 6.51109 2.40256 4.28575 0.911609 3.02207C0.837383 2.95907 0.732898 2.94517 0.645008 2.98593C0.556648 3.02697 0.5 3.11535 0.5 3.21276V9.49987C0.5 10.0514 0.948477 10.4999 1.50001 10.4999H11.5C12.0515 10.4999 12.5 10.0514 12.5 9.49987V3.21276C12.5 3.11535 12.4434 3.02674 12.355 2.98595Z" fill="#86E3A2"/>
</g>
<defs>
<clipPath id="clip0_14_329">
<rect width="12" height="12" fill="white" transform="translate(0.5)"/>
</clipPath>
</defs>
</svg>
