<svg width="449" height="391" viewBox="0 0 449 391" fill="none" xmlns="http://www.w3.org/2000/svg">
<path opacity="0.59" d="M353.022 127.21C352.935 126.63 352.808 126.071 352.64 125.524L354.513 123.246C354.056 122.221 353.48 121.269 352.806 120.405L349.908 120.99C349.096 120.168 348.162 119.478 347.143 118.94L346.854 115.999C345.828 115.607 344.749 115.334 343.639 115.198L342.004 117.66C341.435 117.656 340.859 117.698 340.28 117.783C339.704 117.868 339.141 117.997 338.598 118.168L336.314 116.292C335.29 116.749 334.336 117.325 333.473 117.999L334.058 120.897C333.237 121.709 332.546 122.643 332.01 123.665L329.073 123.952C328.677 124.975 328.404 126.054 328.268 127.17L330.73 128.799C330.726 129.372 330.768 129.944 330.853 130.523C330.94 131.103 331.069 131.666 331.238 132.209L329.362 134.489C329.82 135.514 330.395 136.466 331.073 137.332L333.967 136.747C334.779 137.565 335.713 138.255 336.736 138.791L337.023 141.732C338.045 142.125 339.124 142.397 340.238 142.533L341.871 140.072C342.44 140.075 343.016 140.034 343.592 139.948C344.171 139.861 344.734 139.732 345.276 139.563L347.559 141.44C348.58 140.984 349.532 140.406 350.4 139.732L349.816 136.834C350.631 136.022 351.323 135.089 351.861 134.069L354.802 133.781C355.193 132.754 355.465 131.675 355.603 130.561L353.145 128.93C353.151 128.365 353.109 127.789 353.022 127.21ZM342.938 135.539C339.253 136.09 335.822 133.548 335.27 129.864C334.719 126.18 337.257 122.748 340.941 122.198C344.625 121.647 348.061 124.185 348.611 127.869C349.163 131.553 346.622 134.989 342.938 135.539Z" fill="#C5E7E8"/>
<g opacity="0.59">
<path opacity="0.59" d="M153.26 290.302C153.049 288.894 152.739 287.537 152.334 286.211L156.879 280.681C155.769 278.193 154.37 275.884 152.735 273.787L145.705 275.208C143.734 273.217 141.466 271.54 138.996 270.237L138.296 263.098C135.806 262.148 133.188 261.486 130.492 261.152L126.526 267.125C125.147 267.116 123.75 267.216 122.342 267.427C120.944 267.636 119.577 267.948 118.262 268.361L112.723 263.808C110.234 264.918 107.925 266.317 105.829 267.952L107.25 274.982C105.259 276.954 103.582 279.221 102.279 281.7L95.1488 282.398C94.1878 284.881 93.5265 287.499 93.1941 290.204L99.1673 294.161C99.1582 295.547 99.2581 296.937 99.4688 298.345C99.6796 299.753 99.992 301.119 100.404 302.434L95.85 307.966C96.96 310.455 98.3589 312.764 100.005 314.867L107.026 313.448C108.995 315.43 111.263 317.107 113.742 318.41L114.442 325.549C116.923 326.501 119.541 327.162 122.246 327.495L126.212 321.522C127.591 321.531 128.988 321.431 130.387 321.222C131.794 321.011 133.161 320.699 134.476 320.286L140.017 324.839C142.496 323.731 144.807 322.332 146.909 320.695L145.488 313.665C147.47 311.695 149.147 309.428 150.452 306.958L157.591 306.258C158.541 303.767 159.202 301.15 159.537 298.445L153.573 294.486C153.571 293.107 153.471 291.71 153.26 290.302ZM128.784 310.518C119.843 311.855 111.515 305.688 110.176 296.744C108.839 287.803 114.999 279.475 123.941 278.138C132.883 276.801 141.218 282.959 142.556 291.901C143.895 300.844 137.728 309.181 128.784 310.518Z" fill="#C5E7E8"/>
<path opacity="0.59" d="M132.018 299.983C135.143 296.857 135.143 291.791 132.018 288.666C128.893 285.541 123.826 285.541 120.701 288.666C117.576 291.791 117.576 296.857 120.701 299.983C123.826 303.108 128.893 303.108 132.018 299.983Z" fill="#C5E7E8"/>
</g>
<g opacity="0.59">
<path opacity="0.59" d="M198.317 276.658C198.204 275.906 198.039 275.182 197.823 274.474L200.248 271.522C199.656 270.194 198.909 268.96 198.035 267.843L194.282 268.601C193.23 267.538 192.02 266.644 190.701 265.947L190.329 262.137C188.999 261.63 187.602 261.278 186.163 261.098L184.047 264.286C183.311 264.281 182.566 264.335 181.814 264.448C181.068 264.559 180.339 264.726 179.636 264.946L176.681 262.517C175.353 263.109 174.119 263.856 173.002 264.729L173.759 268.483C172.697 269.534 171.803 270.744 171.107 272.069L167.301 272.441C166.789 273.767 166.436 275.164 166.258 276.607L169.447 278.718C169.443 279.457 169.496 280.198 169.608 280.95C169.721 281.702 169.888 282.431 170.108 283.132L167.677 286.084C168.269 287.412 169.016 288.646 169.895 289.767L173.643 289.009C174.695 290.066 175.905 290.962 177.227 291.656L177.6 295.465C178.924 295.974 180.321 296.327 181.765 296.505L183.882 293.316C184.618 293.322 185.364 293.267 186.111 293.157C186.863 293.044 187.591 292.877 188.293 292.657L191.25 295.086C192.573 294.494 193.806 293.747 194.929 292.873L194.171 289.12C195.229 288.068 196.124 286.858 196.82 285.539L200.63 285.167C201.136 283.837 201.489 282.44 201.667 280.998L198.484 278.885C198.482 278.155 198.43 277.408 198.317 276.658ZM185.255 287.447C180.483 288.161 176.037 284.869 175.323 280.097C174.61 275.324 177.898 270.881 182.67 270.167C187.442 269.453 191.891 272.739 192.605 277.511C193.318 282.284 190.028 286.733 185.255 287.447Z" fill="#C5E7E8"/>
<path opacity="0.59" d="M188.109 279.849C188.691 277.563 187.31 275.238 185.024 274.656C182.738 274.073 180.413 275.455 179.831 277.741C179.249 280.026 180.63 282.351 182.916 282.934C185.202 283.516 187.527 282.135 188.109 279.849Z" fill="#C5E7E8"/>
</g>
<path d="M307.542 99.3005H139.857V34.1315C139.857 31.0668 142.34 28.5834 145.405 28.5834H307.542V99.3005Z" fill="#E4EFF3"/>
<path d="M271.85 73.0318H161.201C160.528 73.0318 159.984 72.4868 159.984 71.8146C159.984 71.1425 160.528 70.5975 161.201 70.5975H271.85C272.522 70.5975 273.067 71.1425 273.067 71.8146C273.067 72.485 272.522 73.0318 271.85 73.0318Z" fill="#96D0D2"/>
<path d="M271.85 61.6648H161.201C160.528 61.6648 159.984 61.1198 159.984 60.4476C159.984 59.7755 160.528 59.2305 161.201 59.2305H271.85C272.522 59.2305 273.067 59.7755 273.067 60.4476C273.067 61.1198 272.522 61.6648 271.85 61.6648Z" fill="#96D0D2"/>
<path d="M271.85 50.2978H161.201C160.529 50.2978 159.984 49.7529 159.984 49.0807C159.984 48.4085 160.529 47.8635 161.201 47.8635H271.85C272.522 47.8635 273.067 48.4085 273.067 49.0807C273.067 49.7529 272.522 50.2978 271.85 50.2978Z" fill="#96D0D2"/>
<path d="M307.542 112.449C301.603 112.449 296.789 107.635 296.789 101.697V39.1817C296.789 33.243 301.603 28.4289 307.542 28.4289C313.48 28.4289 318.295 33.243 318.295 39.1817V101.697C318.296 107.635 313.48 112.449 307.542 112.449Z" fill="#96D0D2"/>
<path d="M319.717 275.05H84.2578C78.4136 275.05 73.6776 270.312 73.6776 264.469V104.075C73.6776 98.2304 78.4155 93.4944 84.2578 93.4944H319.717C325.561 93.4944 330.297 98.2322 330.297 104.075V264.469C330.297 270.312 325.559 275.05 319.717 275.05Z" fill="#002144"/>
<path d="M326.257 104.073V264.471C326.257 268.076 323.321 271.009 319.717 271.009H84.2543C80.65 271.009 77.7143 268.074 77.7143 264.471V104.073C77.7143 100.469 80.65 97.5347 84.2543 97.5347H319.717C323.321 97.5329 326.257 100.469 326.257 104.073Z" fill="#FFF5FE"/>
<path d="M302.026 97.5328V142.008C302.026 144.977 300.824 147.665 298.878 149.611C296.933 151.557 294.244 152.759 291.275 152.759H259.015V271.202H98.1008V97.5328H302.026Z" fill="#FFE8FD"/>
<path d="M253.776 68.5443H264.529L286.036 152.567H241.964L253.776 68.5443Z" fill="#96D0D2"/>
<path d="M284.53 64.4678H213.659V138.749H284.53V64.4678Z" fill="#E4EFF3"/>
<path d="M264 68.5443L248.984 92.5043L252.773 68.5443H264Z" fill="white"/>
<path d="M264.529 152.567C258.59 152.567 253.776 147.753 253.776 141.814V79.299C253.776 73.3604 258.59 68.5462 264.529 68.5462C270.467 68.5462 275.282 73.3604 275.282 79.299V141.814C275.282 147.753 270.467 152.567 264.529 152.567Z" fill="#96D0D2"/>
<path d="M286.036 152.567C280.098 152.567 275.283 147.753 275.283 141.814V79.299C275.283 73.3604 280.098 68.5462 286.036 68.5462C291.975 68.5462 296.789 73.3604 296.789 79.299V141.814C296.789 147.753 291.975 152.567 286.036 152.567Z" fill="#E4EFF3"/>
<path d="M253.776 271.009H92.8634V79.0755C92.8634 73.2604 97.5776 68.5443 103.395 68.5443H253.776V271.009Z" fill="white"/>
<path d="M230.023 238.257V237.08H234.225L234.247 238.126V238.255L230.023 238.257ZM225.821 238.257H221.619V237.08H225.821V238.257ZM217.419 238.257H213.217V237.08H217.419V238.257ZM209.015 238.257H204.813V237.08H209.015V238.257ZM200.611 238.257H196.409V237.08H200.611V238.257ZM192.209 238.257H188.007V237.08H192.209V238.257ZM183.555 237.856C182.761 237.361 182.287 236.509 182.287 235.576V233.501H183.464V235.576C183.464 236.101 183.731 236.578 184.176 236.856L183.555 237.856ZM236.908 234.64H235.731V230.438H236.908V234.64ZM183.462 229.299H182.285V225.097H183.462V229.299ZM236.908 226.236H235.731V222.034H236.908V226.236ZM183.462 220.895H182.285V216.693H183.462V220.895ZM236.908 217.834H235.731V213.632H236.908V217.834ZM183.462 212.493H182.285V208.291H183.462V212.493ZM236.908 209.43H235.731V205.228H236.908V209.43ZM183.462 204.089H182.285V203.168C182.285 201.697 183.482 200.492 184.954 200.485L184.961 201.662C184.134 201.668 183.462 202.342 183.462 203.168V204.089ZM235.012 201.882C234.776 201.737 234.505 201.66 234.225 201.66H231.175V200.483H234.225C234.721 200.483 235.206 200.619 235.628 200.877L235.012 201.882ZM226.973 201.66H222.771V200.483H226.973V201.66ZM218.571 201.66H214.369V200.483H218.571V201.66ZM210.167 201.66H205.965V200.483H210.167V201.66ZM201.763 201.66H197.561V200.483H201.763V201.66ZM193.359 201.66H189.157V200.483H193.359V201.66Z" fill="#C5E7E8"/>
<path d="M331.333 206.164H299.158C296.996 206.164 295.243 204.411 295.243 202.249V190.452C295.243 188.29 296.996 186.537 299.158 186.537H331.333C333.495 186.537 335.248 188.29 335.248 190.452V202.249C335.246 204.413 333.495 206.164 331.333 206.164Z" fill="#FE99B7"/>
<path d="M300.853 204.681L297.77 212.809L312.716 203.468L300.853 204.681Z" fill="#FE99B7"/>
<path d="M328.789 197.141H301.701C301.265 197.141 300.911 196.786 300.911 196.35C300.911 195.914 301.265 195.56 301.701 195.56H328.789C329.225 195.56 329.58 195.914 329.58 196.35C329.58 196.788 329.225 197.141 328.789 197.141Z" fill="#FFF5FE"/>
<path d="M318.738 201.709H301.545C301.194 201.709 300.911 201.426 300.911 201.075V200.763C300.911 200.412 301.194 200.129 301.545 200.129H318.738C319.088 200.129 319.372 200.412 319.372 200.763V201.075C319.372 201.426 319.087 201.709 318.738 201.709Z" fill="#FFF5FE"/>
<path d="M328.789 192.601H301.701C301.265 192.601 300.911 192.246 300.911 191.81C300.911 191.374 301.265 191.02 301.701 191.02H328.789C329.225 191.02 329.58 191.374 329.58 191.81C329.58 192.248 329.225 192.601 328.789 192.601Z" fill="#FFF5FE"/>
<path d="M22.3643 129.03H47.5305C49.4689 129.03 51.0421 127.459 51.0421 125.519V112.915C51.0421 110.976 49.4707 109.403 47.5305 109.403H22.3643C20.4259 109.403 18.8527 110.974 18.8527 112.915V125.519C18.8527 127.459 20.4241 129.03 22.3643 129.03Z" fill="#96D0D2"/>
<path d="M45.4304 127.548L48.5133 135.675L33.5676 126.334L45.4304 127.548Z" fill="#96D0D2"/>
<path d="M23.14 120.007H45.6538C46.0517 120.007 46.3751 119.683 46.3751 119.285V119.149C46.3751 118.751 46.0517 118.428 45.6538 118.428H23.14C22.7421 118.428 22.4188 118.751 22.4188 119.149V119.285C22.4188 119.683 22.7421 120.007 23.14 120.007Z" fill="#FFF5FE"/>
<path d="M23.209 124.575H45.5866C46.0226 124.575 46.3769 124.221 46.3769 123.785C46.3769 123.349 46.0226 122.995 45.5866 122.995H23.209C22.773 122.995 22.4188 123.349 22.4188 123.785C22.4188 124.221 22.773 124.575 23.209 124.575Z" fill="#FFF5FE"/>
<path d="M23.14 115.467H45.6538C46.0517 115.467 46.3751 115.144 46.3751 114.746V114.609C46.3751 114.212 46.0517 113.888 45.6538 113.888H23.14C22.7421 113.888 22.4188 114.212 22.4188 114.609V114.746C22.4188 115.144 22.7421 115.467 23.14 115.467Z" fill="#FFF5FE"/>
<path d="M370.357 158.026H346.462V181.921H370.357V158.026Z" fill="white"/>
<path d="M372.373 183.937H369.318V183.063H371.499V180.881H372.373V183.937Z" fill="#005F7B"/>
<path d="M364.954 183.937H360.59V183.063H364.954V183.937ZM356.228 183.937H351.865V183.063H356.228V183.937Z" fill="#005F7B"/>
<path d="M347.501 183.937H344.446V180.881H345.319V183.063H347.501V183.937Z" fill="#005F7B"/>
<path d="M345.319 176.518H344.446V172.154H345.319V176.518ZM345.319 167.792H344.446V163.429H345.319V167.792Z" fill="#005F7B"/>
<path d="M345.319 159.065H344.446V156.01H347.501V156.883H345.319V159.065Z" fill="#005F7B"/>
<path d="M364.956 156.883H360.592V156.009H364.956V156.883ZM356.228 156.883H351.865V156.009H356.228V156.883Z" fill="#005F7B"/>
<path d="M372.373 159.065H371.499V156.883H369.318V156.009H372.373V159.065Z" fill="#005F7B"/>
<path d="M372.373 176.518H371.499V172.154H372.373V176.518ZM372.373 167.792H371.499V163.429H372.373V167.792Z" fill="#005F7B"/>
<path d="M351.498 161.47H364.979V165.807H363.759C363.575 165.093 363.395 164.528 363.217 164.112C363.039 163.696 362.85 163.381 362.65 163.165C362.451 162.949 362.238 162.796 362.009 162.704C361.78 162.613 361.439 162.567 360.981 162.567H359.399V175.326C359.399 175.816 359.426 176.207 359.48 176.498C359.535 176.788 359.617 177.019 359.729 177.19C359.842 177.36 359.993 177.493 360.183 177.588C360.374 177.684 360.674 177.777 361.081 177.867V178.478H355.387V177.867C355.636 177.809 355.856 177.747 356.047 177.68C356.238 177.613 356.394 177.533 356.514 177.437C356.634 177.34 356.733 177.219 356.813 177.07C356.893 176.921 356.955 176.717 357.001 176.459C357.046 176.201 357.07 175.824 357.07 175.326V162.567H355.5C355.109 162.567 354.788 162.606 354.533 162.68C354.281 162.755 354.045 162.911 353.829 163.147C353.612 163.383 353.416 163.719 353.236 164.157C353.058 164.593 352.889 165.143 352.731 165.808H351.498V161.47Z" fill="#005F7B"/>
<path d="M358.043 24.038L357.522 34.5783L392.918 3.10828L358.043 24.038Z" fill="#96D0D2"/>
<path d="M345.686 11.4577L374.876 33.5882L396.004 0L345.686 11.4577Z" fill="#E4EFF3"/>
<path d="M396.004 0L356.245 19.4637L357.522 34.5783L362.22 23.9926L396.004 0Z" fill="#96D0D2"/>
<path d="M428.431 342.949C428.431 342.949 410.961 344.341 395.403 345.524C393.283 345.691 391.204 345.845 389.204 345.998C387.012 346.158 384.926 346.319 382.999 346.452C379.262 346.726 376.146 346.946 374.133 347.068C374.033 347.075 373.939 347.081 373.846 347.088C372.816 347.148 372.122 347.182 371.821 347.182C371.319 347.182 370.117 346.694 368.424 345.865H368.416C363.562 343.485 354.73 338.297 347.194 333.75C343.123 331.296 339.424 329.03 336.937 327.499C334.932 326.262 333.707 325.5 333.707 325.5L328.806 325.059C328.806 325.059 326.867 321.402 325.196 316.955C323.846 313.365 322.675 309.259 322.849 306.137C322.983 303.582 324.019 301.691 326.58 301.27C329.649 300.768 332.397 300.821 335.039 301.39C340.649 302.572 345.77 306.069 352.43 311.525C360.387 318.038 372.896 329.383 380.659 333.623C382.464 334.606 384.016 335.207 385.191 335.274C386.636 335.354 389.322 334.633 392.879 334.111C394.805 333.83 396.99 333.603 399.365 333.603H399.372C399.988 333.603 400.602 333.61 401.231 333.615C413.084 333.763 427.093 335.274 427.093 335.274L428.431 342.949Z" fill="#FE99B7"/>
<path d="M401.232 333.617L395.403 345.525C393.283 345.692 391.204 345.847 389.204 345.999C387.012 346.159 384.926 346.321 382.999 346.454L392.881 334.111C394.807 333.83 396.992 333.603 399.367 333.603H399.374C399.99 333.603 400.604 333.61 401.232 333.617Z" fill="url(#paint0_linear_5_4)"/>
<path d="M374.275 347.182L373.846 347.088L368.424 345.865C360.955 342.208 344.04 331.879 336.939 327.499L332.486 313.051L374.133 347.07L374.275 347.182Z" fill="url(#paint1_linear_5_4)"/>
<path d="M261.281 259.719L271.198 280.958L288.859 285.804L277.494 256.553L261.281 259.719Z" fill="url(#paint2_linear_5_4)"/>
<path d="M256.826 249.96H203.073C201.421 249.96 200.083 248.621 200.083 246.97V209.22C200.083 207.568 201.421 206.229 203.073 206.229H256.826C258.477 206.229 259.816 207.568 259.816 209.22V246.97C259.814 248.621 258.475 249.96 256.826 249.96Z" fill="#FFCB5B"/>
<path d="M203.974 244.477V211.714C203.974 210.835 204.686 210.122 205.565 210.122H254.332C255.211 210.122 255.923 210.835 255.923 211.714V244.477C255.923 245.357 255.211 246.069 254.332 246.069H205.565C204.686 246.069 203.974 245.357 203.974 244.477Z" fill="white"/>
<path d="M207.262 246.082L222.617 219.487L237.971 246.082H207.262Z" fill="#FFCB5B"/>
<path d="M227.274 246.125L238.917 225.96L250.559 246.125H227.274Z" fill="#FFCB5B"/>
<path d="M241.254 225.96H238.917L238.79 229.561L242.54 231.868L241.254 225.96Z" fill="#FFCB5B"/>
<path d="M224.925 219.487H222.589L222.462 223.088L226.212 225.395L224.925 219.487Z" fill="#FFCB5B"/>
<path d="M234.599 220.674C235.889 220.139 236.502 218.66 235.968 217.37C235.433 216.079 233.954 215.467 232.663 216.001C231.373 216.535 230.76 218.015 231.295 219.305C231.829 220.595 233.309 221.208 234.599 220.674Z" fill="#FFCB5B"/>
<path d="M209.596 246.082L224.951 219.487L240.307 246.082H209.596Z" fill="#FFE8B5"/>
<path d="M229.611 246.125L241.254 225.96L252.895 246.125H229.611Z" fill="#FFE8B5"/>
<path d="M235.958 215.809H233.622V220.868H235.958V215.809Z" fill="#FFCB5B"/>
<path d="M238.422 218.942C238.743 217.583 237.901 216.221 236.542 215.9C235.183 215.579 233.821 216.421 233.5 217.78C233.179 219.139 234.02 220.501 235.38 220.822C236.739 221.143 238.101 220.301 238.422 218.942Z" fill="#FFE8B5"/>
<path d="M406.368 324.897C406.368 324.897 403.5 328.501 399.374 333.603H399.367C396.431 337.232 392.849 341.62 389.204 345.998C381.354 355.404 373.218 364.786 370.484 366.571C364.694 370.363 355.948 372.89 332.821 351.642C322.751 342.388 316.345 336.03 312.287 331.737C306.283 325.391 305.407 323.56 305.407 323.56C305.407 323.56 313.631 309.427 322.851 306.137C324.702 305.475 326.602 305.254 328.473 305.675C329.329 305.87 330.132 306.137 330.88 306.471C339.953 310.517 341.611 324.216 342.849 327.459C343.223 328.434 344.929 330.821 347.194 333.75C353.071 341.353 362.739 352.645 362.739 352.645C362.739 352.645 365.246 349.542 368.416 345.865C371.953 341.767 376.311 336.953 378.953 334.927C379.434 334.56 380.01 334.119 380.657 333.623C386.801 328.983 399.512 319.549 399.512 319.549L406.368 324.897Z" fill="#FE99B7"/>
<path d="M335.041 301.39C333.938 302.5 332.481 304.158 330.882 306.471C329.111 309.032 327.158 312.395 325.3 316.728C325.267 316.8 325.232 316.882 325.2 316.955C321.703 324.952 316.013 329.484 312.289 331.737C306.285 325.391 305.409 323.56 305.409 323.56C305.409 323.56 313.633 309.427 322.853 306.137C322.987 303.582 324.023 301.691 326.584 301.27C329.651 300.768 332.399 300.821 335.041 301.39Z" fill="url(#paint3_linear_5_4)"/>
<path d="M281.224 258.812C281.224 258.812 276.21 278.202 271.194 269.958C269.575 267.303 268.226 265.685 267.143 264.717C265.746 263.472 264.783 263.292 264.242 263.34H264.234C263.9 263.372 263.733 263.494 263.733 263.494C263.733 263.494 257.823 265.5 254.706 258.593C251.583 251.686 251.523 243.215 251.523 243.215L259.607 239.757L281.224 258.812Z" fill="#FFB691"/>
<path d="M334.941 300.045C332.601 302.941 326.804 311.412 321.341 318.653C315.886 325.902 304.626 327.459 304.626 327.459C304.626 327.459 298.943 316.426 293.152 309.853C287.375 303.293 282.154 303.722 275.053 300.412C275.04 300.4 275.013 300.392 274.985 300.38C274.798 300.292 274.618 300.205 274.444 300.118C274.424 300.105 274.411 300.098 274.397 300.091C267.777 296.728 266.52 291.465 262.837 287.674C259.053 283.775 253.035 282.994 245.232 280.54C243.187 279.899 241.059 279.203 238.954 278.434H238.946C233.022 276.289 227.293 273.6 224.17 270.07C219.937 265.276 207.455 249.786 207.455 249.786L212.249 245.553C212.249 245.553 232.862 263.939 234.868 264.942C236.874 265.945 253.81 269.843 259.273 270.846C264.736 271.849 268.52 270.178 270.191 268.733C271.394 267.691 275.312 265.089 277.412 263.712H277.42C278.235 263.171 278.777 262.824 278.777 262.824C278.777 262.824 283.504 257.555 291.234 260.557C292.062 260.878 292.925 261.292 293.82 261.821C300.246 265.62 304.412 275.281 308.49 282.427C310.281 285.563 312.047 288.217 313.985 289.681C320.338 294.475 334.941 300.045 334.941 300.045Z" fill="#005F7B"/>
<path d="M308.49 282.427C301.698 282.327 292.136 284.445 287.577 280.509C281.118 274.939 277.414 263.714 277.414 263.714H277.421L291.235 260.558C292.064 260.88 292.927 261.294 293.822 261.823C300.246 265.619 304.412 275.28 308.49 282.427Z" fill="url(#paint4_linear_5_4)"/>
<path d="M252.922 237.12C249.883 242.897 251.681 251.555 259.44 254.838C268.133 258.515 272.533 254.727 278.775 265.981C285.015 277.235 297.886 277.235 306.243 272.221C314.601 267.207 317.275 264.533 330.481 267.04C343.686 269.547 346.193 259.519 342.015 251.829C337.836 244.141 325.467 239.125 315.604 242.969C305.741 246.813 297.719 248.819 290.029 243.805C282.341 238.791 274.985 231.603 266.796 231.268C258.604 230.936 254.593 233.944 252.922 237.12Z" fill="#002144"/>
<path d="M212.249 245.554C212.249 245.554 210.216 242.155 208.292 240.902C206.37 239.648 203.195 236.974 202.61 238.144C202.025 239.314 205.2 242.239 205.2 242.239C205.2 242.239 201.022 241.153 200.52 239.064C200.019 236.974 199.016 238.411 199.183 241.705C199.35 244.999 199.434 246.252 201.607 247.171C203.779 248.09 207.456 249.789 207.456 249.789L212.249 245.554Z" fill="#FFB691"/>
<path d="M427.094 335.276C427.094 335.276 433.195 333.002 435.202 333.755C437.208 334.508 443.644 345.289 445.733 350.471C447.823 355.652 448.14 355.644 446.987 356.237C444.871 357.323 439.8 354.983 436.289 350.387C432.777 345.791 429.601 342.855 428.433 342.95L427.094 335.276Z" fill="#005F7B"/>
<path d="M399.514 319.547C399.514 319.547 400.935 317.374 401.519 315.619C402.104 313.865 403.107 310.271 406.366 311.942C409.625 313.614 418.652 321.554 421.661 323.059C424.669 324.563 428.114 327.05 428.114 327.05C428.114 327.05 424.92 328.908 418.485 326.986C412.051 325.064 406.366 324.897 406.366 324.897L399.514 319.547Z" fill="#005F7B"/>
<path d="M433.78 334.758C432.771 337.327 434.468 339.772 437.048 343.2C439.629 346.626 441.05 349.384 443.39 352.979C445.73 356.572 447.485 357.408 447.986 354.901C448.487 352.394 444.698 347.898 443.125 345.107C441.553 342.313 435.618 330.076 433.78 334.758Z" fill="#002144"/>
<path d="M403.859 313.612C404.804 314.519 408.623 317.456 411.967 319.128C415.31 320.799 419.784 325.755 424.086 326.732C427.763 327.568 428.599 327.484 428.431 325.813C428.264 324.142 424.17 320.882 419.154 318.626C414.14 316.37 409.542 312.024 407.118 311.523C404.697 311.022 402.119 311.941 403.859 313.612Z" fill="#002144"/>
<path d="M267.143 264.717C265.746 263.472 264.783 263.292 264.242 263.34C265.297 262.958 267.644 261.788 268.078 258.78C268.08 258.78 268.814 262.29 267.143 264.717Z" fill="#EB9D76"/>
<path d="M274.399 300.093C267.779 296.73 266.522 291.467 262.839 287.676C259.055 283.777 253.036 282.996 245.234 280.542C243.188 279.901 241.061 279.205 238.956 278.436C239.784 278.636 253.144 281.806 257.524 282.295C262.031 282.796 267.432 284.802 268.242 289.816C268.996 294.49 271.69 298.576 274.399 300.093Z" fill="url(#paint5_linear_5_4)"/>
<path d="M300.284 244.752C295.103 244.752 290.14 241.979 283.159 238.077L281.845 237.343C270.387 230.961 262.767 232.509 262.688 232.525L262.547 231.873C262.865 231.802 270.493 230.255 282.17 236.76L283.486 237.494C294.467 243.631 299.979 246.71 309.14 241.34C318.852 235.648 329.585 238.929 329.692 238.964L329.491 239.601C329.387 239.569 318.929 236.379 309.478 241.918C306.092 243.9 303.155 244.752 300.284 244.752Z" fill="#002144"/>
<path d="M294.442 270.931C294.304 270.931 294.166 270.93 294.028 270.926C291.165 270.859 287.286 270.043 285.068 266.537C280.11 258.698 274.907 255.323 263.655 252.643C260.051 251.786 257.427 250.043 255.854 247.466C253.278 243.242 254.443 238.339 254.493 238.133L255.142 238.293C255.131 238.342 253.996 243.142 256.428 247.122C257.905 249.54 260.388 251.179 263.811 251.993C275.123 254.687 280.63 258.266 285.635 266.179C287.695 269.436 291.344 270.196 294.046 270.257C299.082 270.394 304.635 268.156 306.028 266.166L306.575 266.55C305.095 268.664 299.657 270.931 294.442 270.931Z" fill="#005F7B"/>
<path d="M157.208 120.495H108.152C107.489 120.495 106.952 119.958 106.952 119.295V84.0259C106.952 83.3628 107.489 82.8251 108.152 82.8251H157.208C157.871 82.8251 158.409 83.3628 158.409 84.0259V119.295C158.409 119.958 157.871 120.495 157.208 120.495Z" fill="#96D0D2"/>
<path d="M110.305 116.346V86.9724C110.305 86.5328 110.661 86.1767 111.101 86.1767H154.259C154.699 86.1767 155.055 86.5328 155.055 86.9724V116.346C155.055 116.786 154.699 117.142 154.259 117.142H111.101C110.661 117.142 110.305 116.786 110.305 116.346Z" fill="white"/>
<path d="M113.135 117.153L126.363 94.2429L139.59 117.153H113.135Z" fill="#96D0D2"/>
<path d="M130.377 117.191L140.405 99.8199L150.435 117.191H130.377Z" fill="#96D0D2"/>
<path d="M142.418 99.8199H140.405L140.296 102.923L143.526 104.91L142.418 99.8199Z" fill="#96D0D2"/>
<path d="M128.352 94.2429H126.341L126.23 97.3457L129.46 99.3331L128.352 94.2429Z" fill="#96D0D2"/>
<path d="M135.844 95.4309C137.047 95.4309 138.022 94.4557 138.022 93.2527C138.022 92.0497 137.047 91.0745 135.844 91.0745C134.641 91.0745 133.666 92.0497 133.666 93.2527C133.666 94.4557 134.641 95.4309 135.844 95.4309Z" fill="#96D0D2"/>
<path d="M115.148 117.153L128.375 94.2429L141.603 117.153H115.148Z" fill="#C5E7E8"/>
<path d="M132.388 117.191L142.418 99.8199L152.448 117.191H132.388Z" fill="#C5E7E8"/>
<path d="M137.857 91.0745H135.844V95.4327H137.857V91.0745Z" fill="#96D0D2"/>
<path d="M137.857 95.4309C139.06 95.4309 140.035 94.4557 140.035 93.2527C140.035 92.0497 139.06 91.0745 137.857 91.0745C136.654 91.0745 135.678 92.0497 135.678 93.2527C135.678 94.4557 136.654 95.4309 137.857 95.4309Z" fill="#C5E7E8"/>
<path d="M238.198 184.94H110.717C108.272 184.94 106.283 182.951 106.283 180.505V141.235C106.283 138.789 108.272 136.802 110.717 136.802H238.198C240.643 136.802 242.632 138.791 242.632 141.235V180.507C242.632 182.952 240.643 184.94 238.198 184.94ZM110.717 138.139C109.01 138.139 107.62 139.527 107.62 141.235V180.507C107.62 182.215 109.01 183.605 110.717 183.605H238.198C239.906 183.605 241.295 182.215 241.295 180.507V141.235C241.295 139.527 239.906 138.139 238.198 138.139H110.717Z" fill="#C5E7E8"/>
<path d="M240.745 119.36H168.742C168.07 119.36 167.525 118.815 167.525 118.143C167.525 117.471 168.07 116.926 168.742 116.926H240.745C241.417 116.926 241.962 117.471 241.962 118.143C241.964 118.813 241.419 119.36 240.745 119.36Z" fill="#C5E7E8"/>
<path d="M240.745 107.993H168.742C168.07 107.993 167.525 107.448 167.525 106.776C167.525 106.104 168.07 105.559 168.742 105.559H240.745C241.417 105.559 241.962 106.104 241.962 106.776C241.964 107.448 241.419 107.993 240.745 107.993Z" fill="#C5E7E8"/>
<path d="M240.745 96.6262H168.742C168.07 96.6262 167.525 96.0812 167.525 95.4091C167.525 94.7369 168.07 94.1919 168.742 94.1919H240.745C241.417 94.1919 241.962 94.7369 241.962 95.4091C241.964 96.0812 241.419 96.6262 240.745 96.6262Z" fill="#C5E7E8"/>
<path d="M240.745 85.2594H168.742C168.07 85.2594 167.525 84.7144 167.525 84.0422C167.525 83.3701 168.07 82.8251 168.742 82.8251H240.745C241.417 82.8251 241.962 83.3701 241.962 84.0422C241.964 84.7144 241.419 85.2594 240.745 85.2594Z" fill="#C5E7E8"/>
<path d="M169.541 237.467H106.269C105.678 237.467 105.199 236.922 105.199 236.249C105.199 235.577 105.678 235.032 106.269 235.032H169.541C170.132 235.032 170.611 235.577 170.611 236.249C170.611 236.922 170.132 237.467 169.541 237.467Z" fill="#C5E7E8"/>
<path d="M169.541 226.1H106.269C105.678 226.1 105.199 225.555 105.199 224.883C105.199 224.21 105.678 223.665 106.269 223.665H169.541C170.132 223.665 170.611 224.21 170.611 224.883C170.611 225.555 170.132 226.1 169.541 226.1Z" fill="#C5E7E8"/>
<path d="M169.541 214.733H106.269C105.678 214.733 105.199 214.188 105.199 213.516C105.199 212.844 105.678 212.299 106.269 212.299H169.541C170.132 212.299 170.611 212.844 170.611 213.516C170.611 214.188 170.132 214.733 169.541 214.733Z" fill="#C5E7E8"/>
<path d="M169.541 203.368H106.269C105.678 203.368 105.199 202.823 105.199 202.151C105.199 201.479 105.678 200.934 106.269 200.934H169.541C170.132 200.934 170.611 201.479 170.611 202.151C170.611 202.823 170.132 203.368 169.541 203.368Z" fill="#C5E7E8"/>
<path d="M228.644 173.455H117.995C117.323 173.455 116.778 172.91 116.778 172.238C116.778 171.565 117.323 171.02 117.995 171.02H228.644C229.316 171.02 229.861 171.565 229.861 172.238C229.861 172.91 229.316 173.455 228.644 173.455Z" fill="#C5E7E8"/>
<path d="M228.644 162.088H117.995C117.323 162.088 116.778 161.543 116.778 160.871C116.778 160.199 117.323 159.654 117.995 159.654H228.644C229.316 159.654 229.861 160.199 229.861 160.871C229.861 161.543 229.316 162.088 228.644 162.088Z" fill="#C5E7E8"/>
<path d="M228.644 150.721H117.995C117.323 150.721 116.778 150.176 116.778 149.504C116.778 148.832 117.323 148.287 117.995 148.287H228.644C229.316 148.287 229.862 148.832 229.862 149.504C229.862 150.176 229.316 150.721 228.644 150.721Z" fill="#C5E7E8"/>
<path d="M119.072 29.3408C119.072 33.3302 117.103 36.889 114.02 39.2198C113.512 39.6049 113.065 40.0464 112.689 40.5314C111.809 41.665 111.317 43.0348 111.317 44.4627V51.1898C111.317 52.7031 110.659 54.0746 109.595 55.0665C108.532 56.0584 107.062 56.6725 105.438 56.6725C102.192 56.6725 99.5614 54.2181 99.5614 51.1916V44.4645C99.5614 42.4317 98.5731 40.5114 96.8764 39.2343C93.8117 36.9254 91.8424 33.4028 91.8079 29.4516C91.8061 29.1718 91.8115 28.8939 91.8297 28.6196C92.2312 22.0015 98.1317 16.6769 105.337 16.6278C112.914 16.5751 119.072 22.2867 119.072 29.3408Z" fill="#FFE8B5"/>
<path opacity="0.38" d="M112.689 40.5333C111.809 41.6669 111.317 43.0367 111.317 44.4646V51.1917C111.317 52.7049 110.659 54.0765 109.595 55.0684C108.532 56.0603 107.062 56.6743 105.438 56.6743C102.192 56.6743 99.5614 54.22 99.5614 51.1935V44.4664C99.5614 42.4335 98.5731 40.5133 96.8764 39.2362C93.8117 36.9272 91.8424 33.4047 91.8079 29.4535C91.8061 29.1737 91.8115 28.8958 91.8297 28.6215C95.2196 35.6592 102.802 40.5606 111.613 40.5606C111.975 40.5569 112.333 40.5478 112.689 40.5333Z" fill="#FFCB5B"/>
<path d="M111.666 48.4286V51.3643C111.666 54.5307 108.935 57.1122 105.553 57.1703C102.058 57.2285 99.2144 54.5452 99.2144 51.2843V48.4286C99.2144 48.3432 99.2835 48.2705 99.3743 48.2596H99.4197C100.906 48.2578 110.022 48.2578 111.471 48.2596C111.481 48.2596 111.49 48.2596 111.499 48.2596C111.502 48.2596 111.504 48.2596 111.506 48.2596C111.597 48.2705 111.666 48.3432 111.666 48.4286Z" fill="url(#paint6_linear_5_4)"/>
<path d="M111.591 50.207H99.2889C98.7511 50.207 98.3151 49.771 98.3151 49.2333C98.3151 48.6956 98.7511 48.2596 99.2889 48.2596H111.591C112.129 48.2596 112.565 48.6956 112.565 49.2333C112.565 49.771 112.129 50.207 111.591 50.207Z" fill="url(#paint7_linear_5_4)"/>
<path d="M111.591 52.1561H99.2889C98.7511 52.1561 98.3151 51.7201 98.3151 51.1824C98.3151 50.6447 98.7511 50.2087 99.2889 50.2087H111.591C112.129 50.2087 112.565 50.6447 112.565 51.1824C112.565 51.7201 112.129 52.1561 111.591 52.1561Z" fill="url(#paint8_linear_5_4)"/>
<path d="M105.484 14.8765C105.099 14.8765 104.788 14.564 104.788 14.1807V10.7018C104.788 10.3167 105.1 10.006 105.484 10.006C105.869 10.006 106.179 10.3185 106.179 10.7018V14.1807C106.179 14.5659 105.869 14.8765 105.484 14.8765Z" fill="#FFE8B5"/>
<path d="M94.4638 19.1222C94.2059 19.3638 93.8062 19.3638 93.5464 19.1222L90.836 16.5971C90.5507 16.3318 90.5507 15.8795 90.836 15.6143C91.0939 15.3726 91.4936 15.3726 91.7516 15.6143L94.462 18.1394C94.7491 18.4046 94.7491 18.857 94.4638 19.1222Z" fill="#FFE8B5"/>
<path d="M90.033 29.3608C90.0348 29.7205 89.746 30.013 89.3863 30.013L85.4605 30.0293C85.1026 30.0311 84.8101 29.7423 84.8083 29.3826C84.8065 29.0229 85.0953 28.7304 85.455 28.7304L89.3808 28.7141C89.7405 28.7141 90.0312 29.0029 90.033 29.3608Z" fill="#FFE8B5"/>
<path d="M94.5293 39.4851C94.8163 39.7503 94.8181 40.2008 94.5347 40.4679L91.8388 43.0057C91.5826 43.2474 91.1812 43.2492 90.9214 43.0094C90.6344 42.7441 90.6325 42.2936 90.9159 42.0266L93.6119 39.4887C93.868 39.2471 94.2695 39.2453 94.5293 39.4851Z" fill="#FFE8B5"/>
<path d="M116.385 19.1021C116.1 18.8369 116.1 18.3845 116.385 18.1193L119.092 15.5905C119.35 15.3489 119.75 15.3489 120.01 15.5905C120.295 15.8557 120.295 16.3081 120.01 16.5733L117.303 19.1021C117.045 19.3419 116.643 19.3419 116.385 19.1021Z" fill="#FFE8B5"/>
<path d="M120.867 29.2356C120.867 28.8777 121.158 28.587 121.518 28.587L125.443 28.5907C125.803 28.5907 126.092 28.8813 126.092 29.241C126.092 29.5989 125.801 29.8896 125.442 29.8896L121.516 29.8859C121.156 29.8859 120.865 29.5953 120.867 29.2356Z" fill="#FFE8B5"/>
<path d="M116.458 39.4105C116.716 39.1707 117.118 39.1707 117.376 39.4123L120.081 41.9411C120.366 42.2064 120.364 42.6587 120.079 42.9239C119.821 43.1637 119.419 43.1637 119.161 42.9221L116.455 40.3933C116.173 40.1281 116.173 39.6758 116.458 39.4105Z" fill="#FFE8B5"/>
<path opacity="0.74" d="M114.195 31.1559C113.495 31.1559 112.928 30.5891 112.928 29.8896C112.928 25.784 109.589 22.445 105.484 22.445C104.784 22.445 104.217 21.8782 104.217 21.1787C104.217 20.4793 104.784 19.9125 105.484 19.9125C110.985 19.9125 115.461 24.3888 115.461 29.8896C115.461 30.5891 114.894 31.1559 114.195 31.1559Z" fill="white"/>
<path d="M352.084 41.6633L351.747 41.3763C352.646 40.3172 353.213 39.7158 353.22 39.7104L353.541 40.0138C353.536 40.021 352.976 40.6151 352.084 41.6633Z" fill="#005F7B"/>
<path d="M353.086 92.2318C351.803 92.2318 350.533 92.0574 349.311 91.7141L349.43 91.2872C350.851 91.6868 352.335 91.8485 353.838 91.7668L353.861 92.2082C353.603 92.2246 353.342 92.2318 353.086 92.2318ZM358.338 91.2527L358.18 90.8385C359.566 90.308 360.868 89.5722 362.049 88.6512L362.322 89C361.104 89.9483 359.765 90.7058 358.338 91.2527ZM345.167 89.7684C343.939 88.9255 342.816 87.8755 341.826 86.6456L342.171 86.3677C343.134 87.5648 344.226 88.5858 345.417 89.4033L345.167 89.7684ZM365.477 85.6882L365.116 85.4321C365.969 84.2276 366.651 82.8942 367.143 81.4736L367.561 81.6189C367.056 83.0795 366.354 84.4493 365.477 85.6882ZM339.417 82.7652C339.09 82.0785 338.787 81.35 338.516 80.5998C338.265 79.9076 338.051 79.1918 337.875 78.4706L338.305 78.3653C338.478 79.0719 338.689 79.7732 338.934 80.449C339.199 81.1865 339.497 81.9005 339.819 82.5745L339.417 82.7652ZM310.314 82.7034L309.918 82.5072C310.594 81.1375 311.339 79.8022 312.131 78.536L312.507 78.7704C311.72 80.0239 310.984 81.3464 310.314 82.7034ZM368.476 77.1408L368.035 77.1081C368.071 76.6358 368.088 76.1544 368.088 75.673C368.088 75.2915 368.077 74.9063 368.055 74.5248C368.019 73.8963 367.935 73.2695 367.808 72.6646L368.24 72.5737C368.373 73.2005 368.46 73.849 368.496 74.4994C368.518 74.8882 368.531 75.2842 368.531 75.673C368.531 76.1653 368.513 76.6594 368.476 77.1408ZM315.09 75.0862L314.741 74.8137C315.679 73.6183 316.689 72.4684 317.742 71.3965L318.059 71.7072C317.018 72.7663 316.018 73.9035 315.09 75.0862ZM337.257 73.9471C337.246 73.6474 337.241 73.3422 337.241 73.0424C337.241 71.8616 337.324 70.6354 337.49 69.3946L337.929 69.4527C337.766 70.6735 337.684 71.8816 337.684 73.0424C337.684 73.3386 337.689 73.6365 337.7 73.9326L337.257 73.9471ZM321.388 68.6806L321.111 68.3373C322.286 67.3854 323.529 66.4934 324.804 65.6813L325.042 66.0556C323.779 66.8567 322.549 67.7414 321.388 68.6806ZM366.124 68.5844C365.353 67.3835 364.36 66.2681 363.168 65.2708L363.453 64.9311C364.68 65.9593 365.702 67.1074 366.496 68.3464L366.124 68.5844ZM338.834 65.0491L338.407 64.9329C338.792 63.5304 339.277 62.0771 339.849 60.6165L340.262 60.7782C339.693 62.2242 339.214 63.6612 338.834 65.0491ZM328.971 63.8647L328.779 63.4668C330.138 62.8074 331.551 62.2188 332.979 61.7174L333.126 62.1352C331.713 62.6312 330.316 63.2125 328.971 63.8647ZM359.424 62.8346C358.141 62.1879 356.737 61.6374 355.253 61.1978L355.378 60.7727C356.89 61.2196 358.318 61.781 359.624 62.4404L359.424 62.8346ZM337.448 60.8872L337.35 60.4548C338.83 60.1169 340.34 59.8626 341.837 59.6991L341.884 60.1387C340.405 60.3022 338.914 60.5529 337.448 60.8872ZM350.862 60.2513C349.407 60.0461 347.899 59.9334 346.378 59.9171L346.384 59.4738C347.923 59.4902 349.45 59.6046 350.924 59.8117L350.862 60.2513ZM342.089 56.658L341.693 56.4618C342.344 55.1483 343.07 53.804 343.855 52.4651L344.237 52.6886C343.457 54.0184 342.734 55.3536 342.089 56.658ZM346.642 48.8663L346.275 48.6193C347.107 47.3803 347.995 46.1359 348.913 44.9205L349.265 45.1876C348.351 46.3957 347.468 47.6328 346.642 48.8663Z" fill="#005F7B"/>
<path d="M307.753 88.9528L307.333 88.813C307.567 88.1117 307.818 87.4069 308.081 86.7202L308.496 86.8782C308.234 87.5595 307.985 88.2571 307.753 88.9528Z" fill="#005F7B"/>
<path d="M92.1912 156.267C92.1912 156.267 92.9542 153.388 93.7772 151.702C94.6001 150.016 95.6629 146.846 96.3078 146.783C96.9527 146.717 97.0326 147.789 96.6929 149.891C96.3532 151.993 97.6794 151.108 98.9056 148.768C100.13 146.428 100.214 149.815 101.305 151.862C104.292 157.466 99.4706 159.648 98.2189 160.333C96.9636 161.018 92.1912 156.267 92.1912 156.267Z" fill="#FFB691"/>
<path d="M32.2524 333.332L27.8652 337.951L33.8311 345.518C33.8311 345.518 34.6667 342.771 38.9686 339.919C43.2704 337.069 32.2524 333.332 32.2524 333.332Z" fill="#FFB691"/>
<path d="M80.0487 299.956C78.5663 302.239 70.4749 310.574 61.7677 319.2C56.245 324.681 50.4699 330.285 45.9809 334.522C41.4247 338.834 38.202 341.739 37.9204 341.694C36.9303 341.534 30.83 334.285 30.83 334.285C30.83 334.285 31.3968 333.513 32.365 332.173C34.298 329.517 37.8296 324.632 41.7081 319.178C46.8456 311.939 52.5827 303.695 55.958 298.306C57.8328 295.316 58.9773 293.207 58.8974 292.635C58.7084 291.33 53.5055 284.954 48.0646 278.585C44.4368 274.346 40.7017 270.103 38.2728 267.358C38.2728 267.352 38.2692 267.352 38.2637 267.35C36.6106 265.488 35.5624 264.318 35.5624 264.318L32.9591 260.013L28.7553 253.062L31.8745 250.826L36.5216 247.493L47.4233 239.668C47.4233 239.668 49.3417 242.213 52.232 246.056C52.5627 246.49 52.9042 246.946 53.2639 247.422C59.6059 255.84 69.5684 269.053 75.0765 276.301C83.5894 287.497 83.4296 294.746 80.0487 299.956Z" fill="#005F7B"/>
<path d="M62.785 296.312C58.1543 304.532 63.3954 308.218 51.1947 317.725C41.8934 324.975 35.0772 330.136 32.3668 332.174C38.2837 324.036 59.2388 295.016 58.8991 292.637C58.5867 290.458 44.3568 274.225 38.2746 267.361C42.5183 269.779 48.8475 273.324 54.986 276.519C65.6026 282.045 67.4156 288.091 62.785 296.312Z" fill="url(#paint9_linear_5_4)"/>
<path d="M22.9111 340.268C22.9111 340.268 19.9608 342.488 20.5567 344.299C21.1526 346.108 23.3598 349.322 23.616 351.268C23.8721 353.213 27.1367 365.672 29.4075 366.102C31.6765 366.533 32.1688 365.458 32.1688 365.458C32.1688 365.458 29.749 348.517 29.8326 348.276C29.9125 348.034 22.9111 340.268 22.9111 340.268Z" fill="#005F7B"/>
<path d="M28.4918 336.7C26.7515 337.517 21.9282 339.614 22.2825 342.124C22.6367 344.635 25.7105 347.078 26.4354 352.526C27.1602 357.975 29.6509 365.061 31.6583 365.724C33.6657 366.387 33.7565 357.858 33.6984 354.04C33.6403 350.223 34.7739 344.399 35.0046 344.013C35.2371 343.628 32.7991 341.964 31.2223 339.679C29.6491 337.395 28.4918 336.7 28.4918 336.7Z" fill="#00324B"/>
<path d="M55.8889 364.489C55.8889 364.489 56.7064 371.983 56.4284 374.221C56.1505 376.459 65.1502 374.703 65.1502 374.703L64.6797 365.065L55.8889 364.489Z" fill="#FFB691"/>
<path d="M65.4409 367.138C59.9582 368.615 56.681 366.902 55.3875 366.526C54.5882 366.29 49.8594 348.757 45.9809 334.524C44.2369 328.114 42.6691 322.377 41.7081 319.182C41.3629 318.05 41.0995 317.236 40.9324 316.827C39.2338 312.678 37.0956 311.278 20.8437 288.845C14.5544 280.162 11.0029 272.779 9.01544 267C5.87262 257.851 6.64651 252.701 6.64651 252.701C10.0673 248.915 24.8331 250.047 31.8745 250.832C34.1689 251.086 35.6404 251.304 35.6404 251.304C35.6404 251.304 36.774 253.62 38.578 257.461C40.9378 262.482 44.4421 270.117 48.0664 278.587C50.7787 284.94 53.5563 291.767 55.9598 298.308C56.7337 300.423 57.473 302.503 58.1543 304.532C59.6421 308.95 60.8284 313.972 61.7694 319.2C65.7588 341.3 65.4409 367.138 65.4409 367.138Z" fill="#005F7B"/>
<path d="M52.232 246.061L36.5215 247.496L31.8745 250.83C24.8331 250.045 10.0673 248.912 6.64651 252.699C6.64651 252.699 5.87262 257.848 9.01544 266.998C11.5024 265.908 15.8715 264.504 23.556 262.885C26.8878 262.18 30.0397 261.189 32.9608 260.017C34.941 259.23 36.8176 258.362 38.578 257.459C45.5885 253.853 50.7441 249.667 53.2638 247.425L52.232 246.061Z" fill="url(#paint10_linear_5_4)"/>
<path d="M55.2167 379.673C55.2167 379.673 54.5881 381.793 55.3693 382.648C56.1504 383.504 59.3114 384.556 61.4878 385.417C63.6642 386.278 68.64 389.842 71.0162 390.451C73.3924 391.058 78.5626 391.792 79.1276 388.825L55.2167 379.673Z" fill="#005F7B"/>
<path d="M55.9216 373.949C55.8617 375.262 54.3321 379.845 55.8726 381.302C57.4131 382.758 60.7213 383.23 62.6524 384.367C64.5835 385.504 69.9408 388.467 72.684 389.165C75.4271 389.863 78.857 389.432 79.1277 388.823C79.7599 387.403 73.3144 382.921 70.2133 380.514C67.1123 378.109 65.6317 373.934 65.4028 373.389C65.1739 372.844 63.3118 373.367 60.0763 372.971C56.8427 372.575 55.9961 372.312 55.9216 373.949Z" fill="#00324B"/>
<path d="M99.0237 159.786C98.7712 160.527 90.7343 174.521 86.2671 182.254V182.26C84.9482 184.543 83.94 186.284 83.5385 186.976C81.6037 190.302 74.8894 194.15 67.7826 197.502C60.5377 200.917 47.5177 202.327 47.356 214.824C47.2398 224.009 49.3035 233.136 50.9767 239.93C52.0085 244.154 52.8932 246.937 52.9968 247.08C53.1566 247.289 48.5205 250.554 43.145 253.333C39.0121 255.471 34.4432 257.321 31.2895 257.261C24.0374 257.126 6.5266 262.834 5.17682 261.768C3.82522 260.707 -2.13161 225.424 0.802298 207.284C4.21035 186.175 20.3459 185.879 20.3459 185.879C20.3459 185.879 26.7024 186.685 33.0444 187.372C36.3126 187.724 39.5753 188.044 41.9678 188.199C49.0001 188.658 71.8355 179.72 75.2145 177.251C79.2621 174.292 91.6608 155.635 92.1295 155.878C92.5963 156.12 99.3471 158.823 99.0237 159.786Z" fill="#FFCB5B"/>
<path d="M52.9949 247.079C53.1548 247.287 48.5187 250.552 43.1432 253.332C31.918 253.895 16.6435 249.18 13.6024 242.793C9.62033 234.429 4.41741 201.686 4.41741 201.686L14.7342 202.738L22.317 233.241L50.9712 239.928C52.0067 244.152 52.8914 246.935 52.9949 247.079Z" fill="#FFA302"/>
<path d="M31.82 207.343C29.7472 199.393 20.346 185.879 20.346 185.879C20.346 185.879 26.7025 186.685 33.0444 187.372C34.3361 193.652 31.82 207.343 31.82 207.343Z" fill="white"/>
<path d="M23.4543 173.733C23.4543 173.733 21.9882 181.998 20.3441 185.879C20.3441 185.879 22.8875 187.941 27.0912 188.622C31.2968 189.303 33.0462 187.37 33.0462 187.37L34.6994 177.163L23.4543 173.733Z" fill="#FFB691"/>
<path d="M43.1777 159.743L40.9541 173.471L30.0578 173.155L28.2321 171.128L26.2355 168.913L23.427 160.409C23.427 160.409 24.537 154.551 24.8113 154.354C24.9693 154.24 30.7645 154.369 35.644 154.498C39.2229 154.594 42.3057 154.69 42.3057 154.69L43.1777 159.743Z" fill="#FFB691"/>
<path d="M50.626 156.74C50.5098 157.395 50.2845 158.066 49.8721 158.669C49.8721 158.669 49.8721 158.674 49.8667 158.673C49.2199 159.624 48.1227 160.411 46.3187 160.733C42.2785 161.448 38.1783 160.277 35.4497 159.232C32.7192 158.191 31.6111 158.229 30.6664 158.58C30.2776 158.725 30.0996 159.386 29.9452 160.215C29.8107 160.914 29.6854 161.726 29.4638 162.462C28.9751 164.073 27.9632 162.793 27.6725 161.238C27.3819 159.683 23.9175 159.061 24.4243 162.64C24.9294 166.224 26.7006 165.73 27.5181 166.644C28.3393 167.563 28.1721 168.775 30.1232 170.147C32.2106 171.616 34.2252 170.831 35.0282 170.295C36.2036 169.522 39.0957 169.909 40.0949 170.07C41.094 170.232 42.1386 170.523 41.937 171.455C41.7353 172.392 41.025 177.769 40.0603 178.999C39.7533 179.392 39.3682 179.795 38.8432 180.153C37.715 180.914 35.9438 181.47 32.9572 181.23C28.5809 180.887 26.1938 179.11 24.5406 177.03C23.4906 175.713 22.8547 173.487 22.4224 171.173C22.1717 169.838 21.9918 168.473 21.8374 167.234C21.4487 164.055 19.89 162.173 20.2079 157.893C20.2242 157.662 20.246 157.432 20.2769 157.188C20.2805 157.134 20.286 157.072 20.2951 157.019C20.9073 152.109 24.5497 148.652 26.9931 147.357C29.4365 146.061 33.157 147.691 34.5232 147.851C35.8838 148.011 37.5297 144.176 42.5474 146.012C47.565 147.851 45.3614 150.27 46.6675 151.508C47.3724 152.174 48.4406 152.536 49.3035 153.041C50.0465 153.471 50.6351 154.007 50.7023 154.937C50.7423 155.484 50.7369 156.107 50.626 156.74Z" fill="#002144"/>
<path d="M86.2671 182.26C84.9482 184.543 83.94 186.284 83.5385 186.976C81.6038 190.302 74.8894 194.15 67.7826 197.502C60.5378 200.917 47.5177 202.327 47.3561 214.824C47.3561 214.824 46.2624 202.427 52.8624 198.252C59.4569 194.075 70.7983 197.434 86.2671 182.26Z" fill="#FFA302"/>
<path d="M93.2923 126.21L36.9692 270.1L52.6172 276.225L108.94 132.335L93.2923 126.21Z" fill="#FE688E"/>
<path d="M97.9443 128.03L41.6212 271.921L47.9616 274.402L104.285 130.512L97.9443 128.03Z" fill="#FE99B7"/>
<path d="M108.944 132.347L93.2958 126.22L104.623 110.869L112.518 100.169L111.05 113.385L108.944 132.347Z" fill="#FFE8B5"/>
<path d="M111.05 113.385L104.623 110.869L112.518 100.169L111.05 113.385Z" fill="#002144"/>
<path d="M48.0663 278.223L38.9576 274.657C37.1519 273.95 36.2617 271.914 36.9684 270.108L52.6171 276.234C51.9086 278.04 49.8721 278.93 48.0663 278.223Z" fill="#002144"/>
<path d="M57.8327 237.554C57.8327 237.554 59.9564 236.713 61.1427 236.44C62.329 236.168 68.3457 234.629 68.7781 235.265C69.3594 236.12 66.4582 236.793 65.5136 237.401C64.5689 238.01 68.4402 237.41 69.067 237.977C69.6937 238.544 68.5765 243.035 68.0442 243.456C67.5101 243.878 61.3007 243.827 58.5866 243.345C55.8726 242.862 57.8327 237.554 57.8327 237.554Z" fill="#FFB691"/>
<path d="M59.3424 243.531C59.3424 243.531 31.9907 245.594 24.0901 242.664C22.911 242.23 21.6666 241.2 20.4041 239.746C20.4004 239.741 20.3986 239.746 20.3986 239.746C13.1974 231.488 5.30942 209.545 4.57367 205.152C3.70894 199.985 5.6782 194.415 10.6141 192.931C12.7759 192.281 18.0587 193.985 21.3269 206.712C24.5969 219.436 28.4228 231.859 29.4964 232.285C30.5701 232.712 57.6347 236.929 58.7483 237.109C59.2334 237.187 59.4114 238.44 59.4532 239.812C59.504 241.567 59.3424 243.531 59.3424 243.531Z" fill="#FFCB5B"/>
<path d="M59.3424 243.53C59.3424 243.53 31.9907 245.594 24.0901 242.664C22.911 242.23 21.6666 241.2 20.4041 239.746C20.6202 239.919 28.1267 245.759 59.4514 239.812C59.504 241.567 59.3424 243.53 59.3424 243.53Z" fill="#FFA302"/>
<path d="M101.305 151.86C101.305 151.86 97.3396 150.704 96.1805 153.588C95.0215 156.471 93.966 161.047 98.217 160.331L101.305 151.86Z" fill="#FFB691"/>
<path d="M43.0742 158.516C42.5982 158.516 42.0968 158.476 41.5646 158.4C39.3846 158.078 37.5806 157.668 36.1309 157.335C33.6621 156.772 32.0307 156.4 30.9625 157.026L30.5701 156.362C31.8999 155.577 33.6512 155.978 36.3017 156.583C37.7369 156.91 39.5263 157.319 41.6754 157.635C43.621 157.924 45.127 157.644 46.1462 156.808C47.3833 155.797 47.4778 154.303 47.4778 154.289L48.248 154.329C48.2444 154.403 48.1336 156.18 46.6349 157.406C45.7356 158.144 44.5402 158.516 43.0742 158.516Z" fill="#005F7B"/>
<path d="M41.3937 155.898C40.5072 155.898 39.2682 155.757 37.5533 155.315C33.3604 154.238 32.1996 154.707 32.1887 154.712L31.8454 154.02C31.9725 153.955 33.2242 153.408 37.744 154.569C41.866 155.626 42.9179 154.863 42.9288 154.856L43.4411 155.432C43.3648 155.501 42.8725 155.898 41.3937 155.898Z" fill="#005F7B"/>
<defs>
<linearGradient id="paint0_linear_5_4" x1="382.999" y1="340.028" x2="401.232" y2="340.028" gradientUnits="userSpaceOnUse">
<stop stop-color="#FE99B7"/>
<stop offset="1" stop-color="#FE688E"/>
</linearGradient>
<linearGradient id="paint1_linear_5_4" x1="332.486" y1="330.116" x2="374.274" y2="330.116" gradientUnits="userSpaceOnUse">
<stop stop-color="#FE99B7"/>
<stop offset="1" stop-color="#FE688E"/>
</linearGradient>
<linearGradient id="paint2_linear_5_4" x1="261.28" y1="271.179" x2="288.86" y2="271.179" gradientUnits="userSpaceOnUse">
<stop stop-color="#005F7B"/>
<stop offset="1" stop-color="#00324B"/>
</linearGradient>
<linearGradient id="paint3_linear_5_4" x1="305.408" y1="316.332" x2="335.04" y2="316.332" gradientUnits="userSpaceOnUse">
<stop stop-color="#FE99B7"/>
<stop offset="1" stop-color="#FE688E"/>
</linearGradient>
<linearGradient id="paint4_linear_5_4" x1="300.821" y1="262.829" x2="269.041" y2="304.188" gradientUnits="userSpaceOnUse">
<stop stop-color="#005F7B"/>
<stop offset="1" stop-color="#00324B"/>
</linearGradient>
<linearGradient id="paint5_linear_5_4" x1="238.955" y1="289.265" x2="274.398" y2="289.265" gradientUnits="userSpaceOnUse">
<stop stop-color="#005F7B"/>
<stop offset="1" stop-color="#00324B"/>
</linearGradient>
<linearGradient id="paint6_linear_5_4" x1="99.2143" y1="52.715" x2="111.666" y2="52.715" gradientUnits="userSpaceOnUse">
<stop stop-color="#5D9C9E"/>
<stop offset="1" stop-color="#96D0D2"/>
</linearGradient>
<linearGradient id="paint7_linear_5_4" x1="98.3145" y1="49.2333" x2="112.565" y2="49.2333" gradientUnits="userSpaceOnUse">
<stop stop-color="#5D9C9E"/>
<stop offset="1" stop-color="#96D0D2"/>
</linearGradient>
<linearGradient id="paint8_linear_5_4" x1="98.3145" y1="51.1821" x2="112.565" y2="51.1821" gradientUnits="userSpaceOnUse">
<stop stop-color="#5D9C9E"/>
<stop offset="1" stop-color="#96D0D2"/>
</linearGradient>
<linearGradient id="paint9_linear_5_4" x1="32.3653" y1="299.767" x2="65.1804" y2="299.767" gradientUnits="userSpaceOnUse">
<stop stop-color="#005F7B"/>
<stop offset="1" stop-color="#00324B"/>
</linearGradient>
<linearGradient id="paint10_linear_5_4" x1="6.5614" y1="256.529" x2="53.2639" y2="256.529" gradientUnits="userSpaceOnUse">
<stop stop-color="#005F7B"/>
<stop offset="1" stop-color="#00324B"/>
</linearGradient>
</defs>
</svg>
