<svg width="15" height="15" viewBox="0 0 15 15" fill="none" xmlns="http://www.w3.org/2000/svg">
<path d="M7.5 0C4.50454 0 2.06757 2.43697 2.06757 5.4324C2.06757 9.14982 6.92906 14.6072 7.13604 14.8377C7.33046 15.0543 7.66989 15.0539 7.86395 14.8377C8.07094 14.6072 12.9324 9.14982 12.9324 5.4324C12.9324 2.43697 10.4954 0 7.5 0ZM7.5 8.1656C5.99291 8.1656 4.76683 6.93949 4.76683 5.4324C4.76683 3.92531 5.99294 2.69924 7.5 2.69924C9.00706 2.69924 10.2331 3.92534 10.2331 5.43243C10.2331 6.93952 9.00706 8.1656 7.5 8.1656Z" fill="#86E3A2"/>
</svg>
