<svg width="15" height="15" viewBox="0 0 15 15" fill="none" xmlns="http://www.w3.org/2000/svg">
<path d="M11.0239 9.59202C10.5501 9.12433 9.95874 9.12433 9.48804 9.59202C9.12898 9.94806 8.76992 10.3041 8.4169 10.6662C8.32034 10.7658 8.23887 10.7869 8.1212 10.7205C7.88887 10.5938 7.64145 10.4912 7.41816 10.3524C6.37719 9.69762 5.50519 8.85579 4.73276 7.90836C4.34956 7.43765 4.0086 6.93376 3.77023 6.36651C3.72196 6.25185 3.73101 6.17642 3.82454 6.08288C4.1836 5.73589 4.53361 5.37985 4.88664 5.0238C5.37846 4.52896 5.37846 3.94964 4.88362 3.45178C4.60301 3.16816 4.3224 2.89056 4.04179 2.60694C3.75213 2.31727 3.46548 2.02459 3.17281 1.73795C2.69909 1.2763 2.10769 1.2763 1.63699 1.74097C1.27492 2.09701 0.927924 2.46211 0.559812 2.81211C0.218855 3.13497 0.0468685 3.53023 0.0106608 3.99188C-0.0466682 4.74319 0.137388 5.45226 0.396877 6.14323C0.927924 7.57343 1.73656 8.84372 2.71719 10.0084C4.04179 11.5834 5.62286 12.8296 7.47248 13.7288C8.30525 14.1331 9.16821 14.4439 10.1066 14.4951C10.7523 14.5314 11.3135 14.3684 11.7631 13.8645C12.0709 13.5206 12.4179 13.2068 12.7437 12.8779C13.2265 12.3891 13.2295 11.7977 12.7498 11.3149C12.1765 10.7386 11.6002 10.1653 11.0239 9.59202Z" fill="#7FD79E"/>
<path d="M10.4476 7.1871L11.5609 6.99701C11.3859 5.97414 10.9032 5.04783 10.17 4.3116C9.39451 3.53615 8.41389 3.04735 7.33369 2.89648L7.17679 4.01591C8.01258 4.13358 8.77295 4.51075 9.37339 5.11119C9.94065 5.67845 10.3118 6.39657 10.4476 7.1871Z" fill="#7FD79E"/>
<path d="M12.1885 2.34747C10.9031 1.06209 9.27682 0.250437 7.48152 0L7.32462 1.11942C8.87551 1.33667 10.2816 2.0397 11.392 3.14706C12.445 4.2001 13.136 5.53074 13.3864 6.99413L14.4998 6.80404C14.2071 5.10831 13.4075 3.56948 12.1885 2.34747Z" fill="#7FD79E"/>
</svg>
