<svg width="44" height="44" viewBox="0 0 44 44" fill="none" xmlns="http://www.w3.org/2000/svg">
<path d="M21.9335 0C34.0471 0 43.867 9.81995 43.867 21.9335C43.867 34.047 34.0471 43.8669 21.9335 43.8669C9.82004 43.8669 9.29797e-05 34.047 9.29797e-05 21.9335C0.0129446 9.82536 9.82536 0.0129434 21.9335 0ZM12.6965 22.6323C12.8483 22.9369 13.0952 23.1838 13.3999 23.3357V23.3435L25.9333 29.6102C26.7073 29.9969 27.6482 29.6831 28.0351 28.9091C28.145 28.689 28.2017 28.4461 28.2003 28.2002V15.6668C28.2007 14.8015 27.4996 14.0998 26.6343 14.0994C26.391 14.0993 26.1509 14.1558 25.9333 14.2646L13.3999 20.5313C12.6255 20.9173 12.3105 21.8579 12.6965 22.6323Z" fill="white"/>
</svg>
